<?xml version="1.0" encoding="UTF-8" standalone="no"?>
<!-- Created with Inkscape (http://www.inkscape.org/) -->

<svg
   version="1.1"
   id="svg2"
   xml:space="preserve"
   width="407.30801"
   height="145.88667"
   viewBox="0 0 407.30801 145.88667"
   xmlns="http://www.w3.org/2000/svg"
   xmlns:svg="http://www.w3.org/2000/svg"><defs
     id="defs6"><clipPath
       clipPathUnits="userSpaceOnUse"
       id="clipPath16"><path
         d="M 0,109.415 H 305.481 V 0 H 0 Z"
         id="path14" /></clipPath><clipPath
       clipPathUnits="userSpaceOnUse"
       id="clipPath80"><path
         d="M 81.4366,72.2512 H 302.365 V 31.9871 H 81.4366 Z"
         id="path78" /></clipPath><radialGradient
       fx="0"
       fy="0"
       cx="0"
       cy="0"
       r="1"
       gradientUnits="userSpaceOnUse"
       gradientTransform="matrix(17.826866,0,0,17.826925,101.29439,19.26886)"
       spreadMethod="pad"
       id="radialGradient240"><stop
         style="stop-opacity:1;stop-color:#ffffff"
         offset="0"
         id="stop232" /><stop
         style="stop-opacity:1;stop-color:#ffffff"
         offset="0.0682884"
         id="stop234" /><stop
         style="stop-opacity:1;stop-color:#2aabe2"
         offset="0.544"
         id="stop236" /><stop
         style="stop-opacity:1;stop-color:#103053"
         offset="1"
         id="stop238" /></radialGradient><clipPath
       clipPathUnits="userSpaceOnUse"
       id="clipPath250"><path
         d="M 0,109.415 H 305.481 V 0 H 0 Z"
         id="path248" /></clipPath></defs><g
     id="g8"
     transform="matrix(1.3333333,0,0,-1.3333333,0,145.88667)"><g
       id="g10"><g
         id="g12"
         clip-path="url(#clipPath16)"><g
           id="g18"
           transform="translate(32.1869,91.622)"><path
             d="m 0,0 c -2.089,0 -3.783,1.693 -3.783,3.783 v 8.269 c 0,2.089 1.694,3.782 3.783,3.782 2.089,0 3.783,-1.693 3.783,-3.782 V 3.783 C 3.783,1.693 2.089,0 0,0"
             style="fill:#0872ba;fill-opacity:1;fill-rule:nonzero;stroke:none"
             id="path20" /></g><g
           id="g22"
           transform="translate(32.1869,43.515)"><path
             d="m 0,0 c -2.089,0 -3.783,1.693 -3.783,3.783 v 8.27 c 0,2.089 1.694,3.782 3.783,3.782 2.089,0 3.783,-1.693 3.783,-3.782 V 3.783 C 3.783,1.693 2.089,0 0,0"
             style="fill:#0872ba;fill-opacity:1;fill-rule:nonzero;stroke:none"
             id="path24" /></g><g
           id="g26"
           transform="translate(32.1839,61.0565)"><path
             d="m 0,0 c -0.247,0 -0.494,0.023 -0.732,0.071 -0.247,0.048 -0.486,0.12 -0.709,0.215 -0.231,0.096 -0.454,0.215 -0.653,0.351 -0.207,0.135 -0.406,0.295 -0.582,0.47 -0.175,0.175 -0.326,0.366 -0.47,0.573 -0.135,0.207 -0.246,0.43 -0.342,0.653 -0.095,0.231 -0.167,0.47 -0.215,0.709 -0.047,0.247 -0.08,0.494 -0.08,0.741 0,0.246 0.033,0.493 0.08,0.74 0.048,0.239 0.12,0.478 0.215,0.709 0.096,0.223 0.207,0.446 0.342,0.653 0.144,0.207 0.295,0.398 0.47,0.573 0.176,0.176 0.375,0.334 0.582,0.47 0.199,0.135 0.422,0.255 0.653,0.351 0.223,0.087 0.462,0.167 0.709,0.215 C 0.494,7.741 1.8,7.334 2.676,6.458 2.851,6.283 3.01,6.092 3.146,5.885 3.281,5.678 3.4,5.455 3.496,5.232 3.592,5.001 3.664,4.762 3.711,4.523 3.759,4.276 3.783,4.029 3.783,3.783 3.783,3.536 3.759,3.289 3.711,3.042 3.664,2.803 3.592,2.564 3.496,2.333 3.4,2.11 3.281,1.887 3.146,1.68 3.01,1.473 2.851,1.282 2.676,1.107 1.975,0.406 0.996,0 0,0"
             style="fill:#0872ba;fill-opacity:1;fill-rule:nonzero;stroke:none"
             id="path28" /></g><g
           id="g30"
           transform="translate(43.8397,80.7831)"><path
             d="m 0,0 c -2.089,0 -3.783,1.693 -3.783,3.783 v 8.174 c 0,2.089 1.694,3.783 3.783,3.783 2.089,0 3.783,-1.694 3.783,-3.783 V 3.783 C 3.783,1.693 2.089,0 0,0"
             style="fill:#0872ba;fill-opacity:1;fill-rule:nonzero;stroke:none"
             id="path32" /></g><g
           id="g34"
           transform="translate(55.492,43.515)"><path
             d="m 0,0 c -2.089,0 -3.783,1.693 -3.783,3.783 v 34.509 c 0,2.089 1.694,3.783 3.783,3.783 2.089,0 3.783,-1.694 3.783,-3.783 V 3.783 C 3.783,1.693 2.089,0 0,0"
             style="fill:#0872ba;fill-opacity:1;fill-rule:nonzero;stroke:none"
             id="path36" /></g><g
           id="g38"
           transform="translate(20.534,83.9687)"><path
             d="m 0,0 c -2.089,0 -3.783,1.693 -3.783,3.783 v 4.988 c 0,2.09 1.694,3.783 3.783,3.783 2.089,0 3.783,-1.693 3.783,-3.783 V 3.783 C 3.783,1.693 2.089,0 0,0"
             style="fill:#0872ba;fill-opacity:1;fill-rule:nonzero;stroke:none"
             id="path40" /></g><g
           id="g42"
           transform="translate(8.8812,43.515)"><path
             d="m 0,0 c -2.089,0 -3.783,1.693 -3.783,3.783 v 34.509 c 0,2.089 1.694,3.783 3.783,3.783 2.089,0 3.783,-1.694 3.783,-3.783 V 3.783 C 3.783,1.693 2.089,0 0,0"
             style="fill:#0872ba;fill-opacity:1;fill-rule:nonzero;stroke:none"
             id="path44" /></g><g
           id="g46"
           transform="translate(43.7474,50.2182)"><path
             d="M 0,0 C -0.247,0 -0.502,0.023 -0.741,0.071 -0.988,0.127 -1.227,0.199 -1.449,0.295 -1.68,0.382 -1.896,0.501 -2.103,0.637 -2.31,0.78 -2.501,0.932 -2.676,1.106 -2.851,1.282 -3.01,1.473 -3.146,1.688 -3.289,1.887 -3.4,2.11 -3.496,2.333 c -0.095,0.23 -0.168,0.47 -0.215,0.709 -0.048,0.247 -0.08,0.493 -0.08,0.74 0,0.247 0.032,0.494 0.08,0.74 0.047,0.24 0.12,0.479 0.215,0.709 0.096,0.224 0.207,0.447 0.35,0.654 0.136,0.207 0.295,0.398 0.47,0.573 0.175,0.175 0.366,0.334 0.573,0.47 0.207,0.135 0.423,0.255 0.654,0.35 0.222,0.096 0.461,0.168 0.708,0.215 0.486,0.096 0.988,0.096 1.473,0 C 0.979,7.446 1.21,7.374 1.441,7.278 1.672,7.183 1.887,7.063 2.094,6.928 2.301,6.792 2.5,6.633 2.668,6.458 2.843,6.283 3.002,6.092 3.138,5.885 3.281,5.678 3.392,5.455 3.488,5.231 3.583,5.001 3.655,4.762 3.703,4.522 3.751,4.276 3.775,4.029 3.775,3.782 3.775,2.787 3.376,1.815 2.668,1.106 2.5,0.932 2.301,0.78 2.094,0.637 1.887,0.501 1.672,0.382 1.441,0.295 1.21,0.199 0.979,0.127 0.732,0.071 0.494,0.023 0.239,0 0,0"
             style="fill:#2dabe2;fill-opacity:1;fill-rule:nonzero;stroke:none"
             id="path48" /></g><g
           id="g50"
           transform="translate(43.8397,80.6884)"><path
             d="m 0,0 c -2.089,0 -3.783,1.694 -3.783,3.783 v 8.269 c 0,2.089 1.694,3.782 3.783,3.782 2.089,0 3.783,-1.693 3.783,-3.782 V 3.783 C 3.783,1.694 2.089,0 0,0"
             style="fill:#2dabe2;fill-opacity:1;fill-rule:nonzero;stroke:none"
             id="path52" /></g><g
           id="g54"
           transform="translate(43.8397,32.5815)"><path
             d="m 0,0 c -2.089,0 -3.783,1.694 -3.783,3.783 v 8.27 c 0,2.089 1.694,3.782 3.783,3.782 2.089,0 3.783,-1.693 3.783,-3.782 V 3.783 C 3.783,1.694 2.089,0 0,0"
             style="fill:#2dabe2;fill-opacity:1;fill-rule:nonzero;stroke:none"
             id="path56" /></g><g
           id="g58"
           transform="translate(55.492,69.85)"><path
             d="m 0,0 c -2.089,0 -3.783,1.693 -3.783,3.783 v 8.175 c 0,2.088 1.694,3.782 3.783,3.782 2.089,0 3.783,-1.694 3.783,-3.782 V 3.783 C 3.783,1.693 2.089,0 0,0"
             style="fill:#2dabe2;fill-opacity:1;fill-rule:nonzero;stroke:none"
             id="path60" /></g><g
           id="g62"
           transform="translate(67.1449,32.5815)"><path
             d="m 0,0 c -2.089,0 -3.783,1.694 -3.783,3.783 v 34.509 c 0,2.09 1.694,3.783 3.783,3.783 2.089,0 3.783,-1.693 3.783,-3.783 V 3.783 C 3.783,1.694 2.089,0 0,0"
             style="fill:#2dabe2;fill-opacity:1;fill-rule:nonzero;stroke:none"
             id="path64" /></g><g
           id="g66"
           transform="translate(32.1869,73.0351)"><path
             d="m 0,0 c -2.089,0 -3.783,1.694 -3.783,3.783 v 4.989 c 0,2.089 1.694,3.783 3.783,3.783 2.089,0 3.783,-1.694 3.783,-3.783 V 3.783 C 3.783,1.694 2.089,0 0,0"
             style="fill:#2dabe2;fill-opacity:1;fill-rule:nonzero;stroke:none"
             id="path68" /></g><g
           id="g70"
           transform="translate(20.534,32.5815)"><path
             d="m 0,0 c -2.089,0 -3.783,1.694 -3.783,3.783 v 34.509 c 0,2.09 1.694,3.783 3.783,3.783 2.089,0 3.783,-1.693 3.783,-3.783 V 3.783 C 3.783,1.694 2.089,0 0,0"
             style="fill:#2dabe2;fill-opacity:1;fill-rule:nonzero;stroke:none"
             id="path72" /></g><g
           id="g74"><g
             id="g76" /><g
             id="g218"><g
               clip-path="url(#clipPath80)"
               opacity="0.990005"
               id="g216"><g
                 transform="translate(88.8871,62.2172)"
                 id="g84"><path
                   d="m 0,0 c 0,-0.837 -0.105,-1.599 -0.314,-2.285 -0.209,-0.686 -0.524,-1.274 -0.948,-1.764 -0.422,-0.491 -0.951,-0.872 -1.59,-1.143 -0.636,-0.271 -1.388,-0.406 -2.253,-0.406 -0.391,0 -0.776,0.02 -1.157,0.061 -0.381,0.042 -0.777,0.11 -1.189,0.206 l 0.185,2.028 c 0.021,0.178 0.093,0.322 0.217,0.432 0.123,0.11 0.298,0.164 0.524,0.164 0.117,0 0.261,-0.019 0.433,-0.056 0.171,-0.038 0.377,-0.057 0.617,-0.057 0.336,0 0.629,0.047 0.879,0.139 0.25,0.093 0.459,0.247 0.623,0.463 0.164,0.217 0.289,0.5 0.371,0.849 0.082,0.35 0.123,0.783 0.123,1.297 V 9.561 H 0 Z"
                   style="fill:#0872ba;fill-opacity:1;fill-rule:nonzero;stroke:none"
                   id="path82" /></g><g
                 transform="translate(95.7826,58.9857)"
                 id="g88"><path
                   d="m 0,0 c 0.733,0 1.274,0.259 1.621,0.777 0.346,0.518 0.52,1.306 0.52,2.362 0,1.056 -0.174,1.842 -0.52,2.357 C 1.274,6.01 0.733,6.268 0,6.268 -0.755,6.268 -1.308,6.01 -1.657,5.496 -2.007,4.981 -2.182,4.195 -2.182,3.139 -2.182,2.083 -2.007,1.295 -1.657,0.777 -1.308,0.259 -0.755,0 0,0 m 0,8.634 c 0.81,0 1.547,-0.127 2.212,-0.38 C 2.878,8 3.449,7.636 3.926,7.163 4.402,6.689 4.773,6.115 5.037,5.439 5.302,4.763 5.434,4.003 5.434,3.16 5.434,2.309 5.302,1.542 5.037,0.859 4.773,0.177 4.402,-0.403 3.926,-0.88 3.449,-1.356 2.878,-1.724 2.212,-1.981 1.547,-2.238 0.81,-2.367 0,-2.367 c -0.816,0 -1.56,0.129 -2.229,0.386 -0.668,0.257 -1.245,0.625 -1.728,1.101 -0.483,0.477 -0.857,1.057 -1.122,1.739 -0.264,0.683 -0.397,1.45 -0.397,2.301 0,0.843 0.133,1.603 0.397,2.279 0.265,0.676 0.639,1.25 1.122,1.724 0.483,0.473 1.06,0.837 1.728,1.091 0.669,0.253 1.413,0.38 2.229,0.38"
                   style="fill:#0872ba;fill-opacity:1;fill-rule:nonzero;stroke:none"
                   id="path86" /></g><path
                 d="m 105.98,56.784 h -3.19 v 10.672 h 3.19 z m 0.329,13.594 c 0,-0.254 -0.051,-0.492 -0.154,-0.715 -0.103,-0.223 -0.244,-0.418 -0.422,-0.586 -0.179,-0.169 -0.386,-0.303 -0.622,-0.402 -0.238,-0.099 -0.49,-0.149 -0.757,-0.149 -0.261,0 -0.504,0.05 -0.731,0.149 -0.226,0.099 -0.426,0.233 -0.602,0.402 -0.175,0.168 -0.312,0.363 -0.411,0.586 -0.1,0.223 -0.15,0.461 -0.15,0.715 0,0.261 0.05,0.505 0.15,0.731 0.099,0.226 0.236,0.425 0.411,0.597 0.176,0.171 0.376,0.305 0.602,0.401 0.227,0.096 0.47,0.144 0.731,0.144 0.267,0 0.519,-0.048 0.757,-0.144 0.236,-0.096 0.443,-0.23 0.622,-0.401 0.178,-0.172 0.319,-0.371 0.422,-0.597 0.103,-0.226 0.154,-0.47 0.154,-0.731"
                 style="fill:#0872ba;fill-opacity:1;fill-rule:nonzero;stroke:none"
                 id="path90" /><g
                 transform="translate(111.0531,66.3031)"
                 id="g94"><path
                   d="m 0,0 c 0.206,0.192 0.419,0.37 0.639,0.535 0.219,0.165 0.454,0.303 0.705,0.417 0.25,0.113 0.52,0.202 0.812,0.267 0.292,0.066 0.61,0.098 0.952,0.098 0.583,0 1.1,-0.101 1.549,-0.303 C 5.106,0.811 5.485,0.53 5.794,0.169 6.104,-0.19 6.336,-0.62 6.494,-1.117 6.652,-1.614 6.73,-2.155 6.73,-2.738 V -9.52 H 3.541 v 6.782 c 0,0.522 -0.12,0.928 -0.36,1.22 C 2.94,-1.227 2.587,-1.081 2.12,-1.081 1.771,-1.081 1.442,-1.155 1.138,-1.302 0.832,-1.45 0.535,-1.65 0.247,-1.904 V -9.52 H -2.942 V 1.152 h 1.975 c 0.398,0 0.658,-0.178 0.782,-0.535 z"
                   style="fill:#0872ba;fill-opacity:1;fill-rule:nonzero;stroke:none"
                   id="path92" /></g><g
                 transform="translate(123.4124,56.619)"
                 id="g98"><path
                   d="M 0,0 C -0.508,0 -0.955,0.074 -1.343,0.221 -1.73,0.369 -2.057,0.578 -2.32,0.849 -2.585,1.12 -2.785,1.447 -2.923,1.832 -3.06,2.216 -3.128,2.645 -3.128,3.118 v 5.516 h -0.906 c -0.164,0 -0.305,0.054 -0.422,0.16 -0.116,0.106 -0.175,0.262 -0.175,0.468 v 1.245 l 1.698,0.329 0.628,2.604 c 0.082,0.33 0.316,0.494 0.7,0.494 H 0.062 V 10.816 H 2.707 V 8.634 H 0.062 v -5.3 c 0,-0.247 0.06,-0.451 0.18,-0.612 0.12,-0.161 0.293,-0.242 0.52,-0.242 0.116,0 0.214,0.012 0.293,0.036 0.079,0.024 0.147,0.051 0.206,0.083 0.058,0.03 0.113,0.058 0.165,0.082 0.051,0.024 0.111,0.036 0.179,0.036 0.096,0 0.173,-0.023 0.232,-0.067 C 1.896,2.605 1.955,2.535 2.018,2.439 L 2.984,0.926 C 2.573,0.617 2.109,0.386 1.596,0.231 1.081,0.077 0.549,0 0,0"
                   style="fill:#0872ba;fill-opacity:1;fill-rule:nonzero;stroke:none"
                   id="path96" /></g><g
                 transform="translate(142.4613,64.286)"
                 id="g102"><path
                   d="M 0,0 C 0,0.741 -0.096,1.41 -0.288,2.007 -0.48,2.604 -0.756,3.109 -1.116,3.524 -1.477,3.939 -1.918,4.259 -2.438,4.481 -2.96,4.705 -3.554,4.816 -4.22,4.816 h -2.325 v -9.643 h 2.325 c 0.666,0 1.26,0.112 1.782,0.335 0.52,0.222 0.961,0.542 1.322,0.957 0.36,0.415 0.636,0.921 0.828,1.518 C -0.096,-1.42 0,-0.748 0,0 M 3.561,0 C 3.561,-1.084 3.374,-2.084 3,-3 2.626,-3.916 2.1,-4.708 1.42,-5.377 0.741,-6.046 -0.077,-6.568 -1.034,-6.941 -1.991,-7.315 -3.053,-7.502 -4.22,-7.502 h -5.824 V 7.492 h 5.824 c 1.167,0 2.229,-0.189 3.186,-0.566 C -0.077,6.548 0.741,6.027 1.42,5.361 2.1,4.696 2.626,3.905 3,2.989 3.374,2.074 3.561,1.077 3.561,0"
                   style="fill:#0872ba;fill-opacity:1;fill-rule:nonzero;stroke:none"
                   id="path100" /></g><g
                 transform="translate(152.8743,61.1264)"
                 id="g106"><path
                   d="m 0,0 c -0.638,-0.027 -1.162,-0.082 -1.574,-0.165 -0.411,-0.082 -0.738,-0.185 -0.978,-0.308 -0.24,-0.124 -0.406,-0.264 -0.499,-0.422 -0.093,-0.158 -0.138,-0.33 -0.138,-0.515 0,-0.363 0.098,-0.619 0.297,-0.766 0.2,-0.148 0.491,-0.222 0.875,-0.222 0.412,0 0.772,0.072 1.08,0.216 0.31,0.144 0.622,0.378 0.937,0.7 z m -5.742,4.847 c 0.644,0.57 1.36,0.993 2.145,1.271 0.786,0.278 1.628,0.417 2.527,0.417 0.645,0 1.226,-0.105 1.745,-0.314 C 1.193,6.012 1.632,5.72 1.993,5.346 2.352,4.972 2.628,4.528 2.821,4.014 3.012,3.499 3.109,2.937 3.109,2.326 V -4.343 H 1.648 c -0.303,0 -0.53,0.041 -0.685,0.124 -0.154,0.082 -0.283,0.254 -0.385,0.514 l -0.227,0.587 c -0.268,-0.227 -0.526,-0.425 -0.773,-0.597 -0.247,-0.172 -0.502,-0.317 -0.766,-0.437 -0.264,-0.12 -0.545,-0.21 -0.844,-0.268 -0.298,-0.058 -0.629,-0.087 -0.993,-0.087 -0.488,0 -0.93,0.063 -1.328,0.19 -0.398,0.127 -0.736,0.314 -1.013,0.561 -0.279,0.247 -0.492,0.554 -0.644,0.921 -0.15,0.367 -0.226,0.791 -0.226,1.271 0,0.384 0.096,0.773 0.288,1.168 0.192,0.395 0.525,0.754 0.999,1.081 0.472,0.325 1.111,0.598 1.914,0.817 0.803,0.22 1.814,0.344 3.035,0.371 V 2.326 C 0,2.95 -0.128,3.401 -0.386,3.679 -0.643,3.957 -1.008,4.096 -1.481,4.096 -1.859,4.096 -2.168,4.055 -2.407,3.973 -2.648,3.89 -2.862,3.797 -3.051,3.695 -3.239,3.592 -3.423,3.499 -3.602,3.417 -3.78,3.334 -3.992,3.293 -4.239,3.293 c -0.22,0 -0.406,0.055 -0.556,0.165 -0.151,0.109 -0.274,0.24 -0.371,0.391 z"
                   style="fill:#0872ba;fill-opacity:1;fill-rule:nonzero;stroke:none"
                   id="path104" /></g><g
                 transform="translate(161.5721,56.619)"
                 id="g110"><path
                   d="M 0,0 C -0.508,0 -0.955,0.074 -1.343,0.221 -1.73,0.369 -2.057,0.578 -2.32,0.849 -2.585,1.12 -2.785,1.447 -2.923,1.832 -3.06,2.216 -3.128,2.645 -3.128,3.118 v 5.516 h -0.906 c -0.164,0 -0.305,0.054 -0.422,0.16 -0.116,0.106 -0.175,0.262 -0.175,0.468 v 1.245 l 1.698,0.329 0.628,2.604 c 0.082,0.33 0.316,0.494 0.7,0.494 H 0.062 V 10.816 H 2.707 V 8.634 H 0.062 v -5.3 c 0,-0.247 0.06,-0.451 0.18,-0.612 0.12,-0.161 0.293,-0.242 0.52,-0.242 0.116,0 0.214,0.012 0.293,0.036 0.079,0.024 0.147,0.051 0.206,0.083 0.058,0.03 0.113,0.058 0.165,0.082 0.051,0.024 0.111,0.036 0.179,0.036 0.096,0 0.173,-0.023 0.232,-0.067 C 1.896,2.605 1.955,2.535 2.018,2.439 L 2.984,0.926 C 2.573,0.617 2.109,0.386 1.596,0.231 1.081,0.077 0.549,0 0,0"
                   style="fill:#0872ba;fill-opacity:1;fill-rule:nonzero;stroke:none"
                   id="path108" /></g><g
                 transform="translate(171.0604,61.1264)"
                 id="g114"><path
                   d="m 0,0 c -0.638,-0.027 -1.162,-0.082 -1.574,-0.165 -0.411,-0.082 -0.738,-0.185 -0.978,-0.308 -0.24,-0.124 -0.406,-0.264 -0.499,-0.422 -0.093,-0.158 -0.138,-0.33 -0.138,-0.515 0,-0.363 0.098,-0.619 0.297,-0.766 0.2,-0.148 0.491,-0.222 0.875,-0.222 0.412,0 0.772,0.072 1.08,0.216 0.31,0.144 0.622,0.378 0.937,0.7 z m -5.742,4.847 c 0.644,0.57 1.36,0.993 2.145,1.271 0.786,0.278 1.628,0.417 2.527,0.417 0.645,0 1.226,-0.105 1.745,-0.314 C 1.192,6.012 1.632,5.72 1.992,5.346 2.352,4.972 2.628,4.528 2.82,4.014 3.012,3.499 3.108,2.937 3.108,2.326 V -4.343 H 1.647 c -0.302,0 -0.53,0.041 -0.684,0.124 -0.154,0.082 -0.283,0.254 -0.386,0.514 l -0.226,0.587 c -0.268,-0.227 -0.526,-0.425 -0.773,-0.597 -0.247,-0.172 -0.502,-0.317 -0.766,-0.437 -0.264,-0.12 -0.545,-0.21 -0.844,-0.268 -0.298,-0.058 -0.629,-0.087 -0.993,-0.087 -0.488,0 -0.93,0.063 -1.328,0.19 -0.398,0.127 -0.736,0.314 -1.013,0.561 -0.279,0.247 -0.492,0.554 -0.644,0.921 -0.15,0.367 -0.226,0.791 -0.226,1.271 0,0.384 0.096,0.773 0.288,1.168 0.192,0.395 0.525,0.754 0.999,1.081 0.472,0.325 1.111,0.598 1.914,0.817 0.803,0.22 1.814,0.344 3.035,0.371 V 2.326 C 0,2.95 -0.128,3.401 -0.386,3.679 -0.643,3.957 -1.008,4.096 -1.481,4.096 -1.859,4.096 -2.168,4.055 -2.407,3.973 -2.648,3.89 -2.862,3.797 -3.051,3.695 -3.239,3.592 -3.423,3.499 -3.602,3.417 -3.78,3.334 -3.992,3.293 -4.239,3.293 c -0.22,0 -0.406,0.055 -0.556,0.165 -0.151,0.109 -0.274,0.24 -0.371,0.391 z"
                   style="fill:#0872ba;fill-opacity:1;fill-rule:nonzero;stroke:none"
                   id="path112" /></g><g
                 transform="translate(191.2303,60.6635)"
                 id="g118"><path
                   d="M 0,0 C 0.083,0 0.165,-0.016 0.247,-0.046 0.33,-0.077 0.408,-0.13 0.484,-0.206 l 1.379,-1.451 c -0.604,-0.789 -1.36,-1.384 -2.269,-1.785 -0.909,-0.402 -1.985,-0.602 -3.227,-0.602 -1.138,0 -2.159,0.193 -3.061,0.581 -0.903,0.387 -1.667,0.922 -2.295,1.606 -0.628,0.682 -1.11,1.492 -1.446,2.428 -0.336,0.936 -0.504,1.953 -0.504,3.052 0,1.118 0.181,2.145 0.545,3.082 0.364,0.936 0.875,1.744 1.534,2.423 0.658,0.68 1.447,1.207 2.367,1.585 0.919,0.377 1.931,0.566 3.036,0.566 0.562,0 1.092,-0.05 1.59,-0.149 0.497,-0.1 0.962,-0.237 1.394,-0.412 0.432,-0.175 0.83,-0.386 1.194,-0.633 C 1.084,9.838 1.406,9.571 1.688,9.283 L 0.515,7.708 C 0.439,7.612 0.351,7.524 0.247,7.446 0.145,7.367 0,7.327 -0.185,7.327 c -0.124,0 -0.24,0.027 -0.35,0.083 -0.11,0.054 -0.226,0.121 -0.35,0.2 -0.123,0.079 -0.259,0.165 -0.406,0.258 -0.147,0.092 -0.322,0.178 -0.525,0.257 -0.203,0.079 -0.439,0.146 -0.71,0.201 -0.271,0.054 -0.588,0.082 -0.953,0.082 -0.576,0 -1.102,-0.107 -1.579,-0.319 C -5.535,7.876 -5.946,7.565 -6.293,7.157 -6.64,6.749 -6.907,6.248 -7.096,5.655 -7.284,5.062 -7.378,4.384 -7.378,3.623 c 0,-0.769 0.105,-1.452 0.314,-2.049 0.209,-0.596 0.494,-1.099 0.854,-1.507 0.359,-0.408 0.78,-0.719 1.261,-0.932 0.479,-0.212 0.994,-0.319 1.543,-0.319 0.315,0 0.603,0.016 0.864,0.047 0.261,0.031 0.505,0.082 0.731,0.154 0.226,0.072 0.439,0.168 0.638,0.288 0.199,0.12 0.402,0.273 0.608,0.458 0.082,0.069 0.17,0.125 0.267,0.17 C -0.202,-0.022 -0.103,0 0,0"
                   style="fill:#0872ba;fill-opacity:1;fill-rule:nonzero;stroke:none"
                   id="path116" /></g><g
                 transform="translate(200.5535,63.4008)"
                 id="g122"><path
                   d="M 0,0 C 0,0.254 -0.033,0.501 -0.098,0.741 -0.163,0.981 -0.27,1.195 -0.417,1.384 -0.564,1.573 -0.759,1.726 -0.999,1.842 -1.239,1.959 -1.53,2.017 -1.873,2.017 -2.478,2.017 -2.95,1.844 -3.294,1.498 -3.637,1.151 -3.863,0.652 -3.973,0 Z m -4.014,-1.853 c 0.103,-0.891 0.374,-1.538 0.813,-1.939 0.439,-0.402 1.005,-0.603 1.698,-0.603 0.37,0 0.69,0.045 0.957,0.134 0.268,0.09 0.506,0.189 0.716,0.299 0.209,0.109 0.401,0.209 0.576,0.298 0.175,0.089 0.358,0.134 0.55,0.134 0.254,0 0.446,-0.093 0.577,-0.278 L 2.799,-4.95 C 2.47,-5.328 2.114,-5.634 1.733,-5.871 1.353,-6.108 0.962,-6.293 0.561,-6.427 0.159,-6.561 -0.242,-6.653 -0.644,-6.705 c -0.401,-0.051 -0.784,-0.077 -1.147,-0.077 -0.748,0 -1.449,0.122 -2.105,0.365 -0.655,0.244 -1.228,0.606 -1.718,1.086 -0.49,0.48 -0.878,1.077 -1.163,1.791 -0.285,0.713 -0.427,1.543 -0.427,2.49 0,0.714 0.122,1.39 0.365,2.028 0.243,0.638 0.594,1.197 1.05,1.677 0.456,0.48 1.009,0.861 1.657,1.142 0.648,0.282 1.38,0.422 2.196,0.422 0.707,0 1.354,-0.11 1.941,-0.329 C 0.592,3.67 1.096,3.352 1.518,2.933 1.939,2.515 2.269,2.001 2.506,1.395 2.742,0.787 2.86,0.1 2.86,-0.669 2.86,-0.909 2.851,-1.104 2.83,-1.255 2.81,-1.406 2.771,-1.526 2.717,-1.616 2.661,-1.705 2.588,-1.767 2.495,-1.801 2.402,-1.835 2.284,-1.853 2.141,-1.853 Z"
                   style="fill:#0872ba;fill-opacity:1;fill-rule:nonzero;stroke:none"
                   id="path120" /></g><g
                 transform="translate(207.8494,66.3031)"
                 id="g126"><path
                   d="m 0,0 c 0.206,0.192 0.419,0.37 0.639,0.535 0.219,0.165 0.454,0.303 0.705,0.417 0.25,0.113 0.52,0.202 0.812,0.267 0.292,0.066 0.61,0.098 0.952,0.098 0.583,0 1.1,-0.101 1.549,-0.303 C 5.106,0.811 5.485,0.53 5.794,0.169 6.104,-0.19 6.336,-0.62 6.494,-1.117 6.652,-1.614 6.73,-2.155 6.73,-2.738 V -9.52 H 3.541 v 6.782 c 0,0.522 -0.12,0.928 -0.36,1.22 C 2.94,-1.227 2.587,-1.081 2.12,-1.081 1.771,-1.081 1.442,-1.155 1.138,-1.302 0.832,-1.45 0.535,-1.65 0.247,-1.904 V -9.52 H -2.942 V 1.152 h 1.975 c 0.398,0 0.658,-0.178 0.782,-0.535 z"
                   style="fill:#0872ba;fill-opacity:1;fill-rule:nonzero;stroke:none"
                   id="path124" /></g><g
                 transform="translate(220.2098,56.619)"
                 id="g130"><path
                   d="M 0,0 C -0.508,0 -0.955,0.074 -1.343,0.221 -1.73,0.369 -2.057,0.578 -2.32,0.849 -2.585,1.12 -2.785,1.447 -2.923,1.832 -3.06,2.216 -3.128,2.645 -3.128,3.118 v 5.516 h -0.906 c -0.164,0 -0.305,0.054 -0.422,0.16 -0.116,0.106 -0.175,0.262 -0.175,0.468 v 1.245 l 1.698,0.329 0.628,2.604 c 0.082,0.33 0.316,0.494 0.7,0.494 H 0.062 V 10.816 H 2.707 V 8.634 H 0.062 v -5.3 c 0,-0.247 0.06,-0.451 0.18,-0.612 0.12,-0.161 0.293,-0.242 0.52,-0.242 0.116,0 0.214,0.012 0.293,0.036 0.079,0.024 0.147,0.051 0.206,0.083 0.058,0.03 0.113,0.058 0.165,0.082 0.051,0.024 0.111,0.036 0.179,0.036 0.096,0 0.173,-0.023 0.232,-0.067 C 1.896,2.605 1.955,2.535 2.018,2.439 L 2.984,0.926 C 2.573,0.617 2.109,0.386 1.596,0.231 1.081,0.077 0.549,0 0,0"
                   style="fill:#0872ba;fill-opacity:1;fill-rule:nonzero;stroke:none"
                   id="path128" /></g><g
                 transform="translate(230.7274,63.4008)"
                 id="g134"><path
                   d="M 0,0 C 0,0.254 -0.033,0.501 -0.098,0.741 -0.163,0.981 -0.27,1.195 -0.417,1.384 -0.564,1.573 -0.759,1.726 -0.999,1.842 -1.239,1.959 -1.53,2.017 -1.873,2.017 -2.478,2.017 -2.95,1.844 -3.294,1.498 -3.637,1.151 -3.863,0.652 -3.973,0 Z m -4.014,-1.853 c 0.103,-0.891 0.374,-1.538 0.813,-1.939 0.439,-0.402 1.005,-0.603 1.698,-0.603 0.37,0 0.69,0.045 0.957,0.134 0.268,0.09 0.506,0.189 0.716,0.299 0.209,0.109 0.401,0.209 0.576,0.298 0.175,0.089 0.358,0.134 0.55,0.134 0.254,0 0.446,-0.093 0.577,-0.278 L 2.799,-4.95 C 2.47,-5.328 2.114,-5.634 1.733,-5.871 1.353,-6.108 0.962,-6.293 0.561,-6.427 0.159,-6.561 -0.242,-6.653 -0.644,-6.705 c -0.401,-0.051 -0.784,-0.077 -1.147,-0.077 -0.748,0 -1.449,0.122 -2.105,0.365 -0.655,0.244 -1.228,0.606 -1.718,1.086 -0.49,0.48 -0.878,1.077 -1.163,1.791 -0.285,0.713 -0.427,1.543 -0.427,2.49 0,0.714 0.122,1.39 0.365,2.028 0.243,0.638 0.594,1.197 1.05,1.677 0.456,0.48 1.009,0.861 1.657,1.142 0.648,0.282 1.38,0.422 2.196,0.422 0.707,0 1.354,-0.11 1.941,-0.329 C 0.592,3.67 1.096,3.352 1.518,2.933 1.939,2.515 2.269,2.001 2.506,1.395 2.742,0.787 2.86,0.1 2.86,-0.669 2.86,-0.909 2.851,-1.104 2.83,-1.255 2.81,-1.406 2.771,-1.526 2.717,-1.616 2.661,-1.705 2.588,-1.767 2.495,-1.801 2.402,-1.835 2.284,-1.853 2.141,-1.853 Z"
                   style="fill:#0872ba;fill-opacity:1;fill-rule:nonzero;stroke:none"
                   id="path132" /></g><g
                 transform="translate(238.0653,65.809)"
                 id="g138"><path
                   d="m 0,0 c 0.329,0.576 0.708,1.029 1.137,1.358 0.428,0.329 0.921,0.495 1.476,0.495 0.481,0 0.871,-0.114 1.174,-0.34 L 3.581,-0.833 C 3.547,-0.984 3.49,-1.087 3.411,-1.143 3.332,-1.197 3.224,-1.225 3.087,-1.225 c -0.055,0 -0.127,0.004 -0.216,0.011 -0.09,0.006 -0.182,0.015 -0.278,0.026 -0.096,0.01 -0.194,0.02 -0.293,0.03 -0.1,0.011 -0.191,0.015 -0.273,0.015 -0.466,0 -0.839,-0.123 -1.117,-0.37 C 0.633,-1.76 0.397,-2.103 0.205,-2.542 V -9.025 H -2.984 V 1.646 h 1.893 c 0.157,0 0.289,-0.013 0.396,-0.041 0.106,-0.027 0.195,-0.07 0.267,-0.128 0.073,-0.059 0.127,-0.136 0.165,-0.232 0.037,-0.096 0.071,-0.212 0.098,-0.349 z"
                   style="fill:#0872ba;fill-opacity:1;fill-rule:nonzero;stroke:none"
                   id="path136" /></g><g
                 transform="translate(87.2308,37.5746)"
                 id="g142"><path
                   d="m 0,0 c 0.732,0 1.273,0.26 1.621,0.777 0.346,0.518 0.52,1.306 0.52,2.363 0,1.055 -0.174,1.841 -0.52,2.356 C 1.273,6.011 0.732,6.268 0,6.268 -0.756,6.268 -1.309,6.011 -1.658,5.496 -2.008,4.981 -2.182,4.195 -2.182,3.14 -2.182,2.083 -2.008,1.295 -1.658,0.777 -1.309,0.26 -0.756,0 0,0 M 0,8.635 C 0.809,8.635 1.547,8.508 2.211,8.254 2.877,8 3.449,7.637 3.926,7.163 4.402,6.689 4.773,6.115 5.037,5.439 5.301,4.764 5.434,4.004 5.434,3.16 5.434,2.309 5.301,1.542 5.037,0.859 4.773,0.177 4.402,-0.402 3.926,-0.88 3.449,-1.356 2.877,-1.724 2.211,-1.98 1.547,-2.238 0.809,-2.366 0,-2.366 c -0.816,0 -1.561,0.128 -2.229,0.386 -0.669,0.256 -1.246,0.624 -1.728,1.1 -0.484,0.478 -0.858,1.057 -1.123,1.739 -0.264,0.683 -0.396,1.45 -0.396,2.301 0,0.844 0.132,1.604 0.396,2.279 0.265,0.676 0.639,1.25 1.123,1.724 C -3.475,7.637 -2.898,8 -2.229,8.254 -1.561,8.508 -0.816,8.635 0,8.635"
                   style="fill:#0872ba;fill-opacity:1;fill-rule:nonzero;stroke:none"
                   id="path140" /></g><g
                 transform="translate(97.1097,44.892)"
                 id="g146"><path
                   d="m 0,0 c 0.206,0.192 0.419,0.37 0.639,0.535 0.219,0.165 0.454,0.304 0.705,0.417 0.25,0.113 0.52,0.202 0.812,0.268 0.292,0.065 0.61,0.097 0.952,0.097 0.583,0 1.1,-0.101 1.549,-0.303 C 5.106,0.812 5.485,0.53 5.794,0.17 6.104,-0.19 6.336,-0.619 6.494,-1.116 6.652,-1.614 6.73,-2.154 6.73,-2.737 V -9.52 H 3.541 v 6.783 c 0,0.521 -0.12,0.927 -0.36,1.219 C 2.94,-1.227 2.587,-1.08 2.12,-1.08 1.771,-1.08 1.442,-1.154 1.138,-1.302 0.832,-1.449 0.535,-1.65 0.247,-1.903 V -9.52 H -2.942 V 1.152 h 1.975 c 0.398,0 0.658,-0.177 0.782,-0.535 z"
                   style="fill:#0872ba;fill-opacity:1;fill-rule:nonzero;stroke:none"
                   id="path144" /></g><g
                 transform="translate(114.3158,47.6908)"
                 id="g150"><path
                   d="M 0,0 V -3.797 H 5.125 V -6.483 H 0 v -5.835 H -3.499 V 2.676 H 6.154 V 0 Z"
                   style="fill:#0872ba;fill-opacity:1;fill-rule:nonzero;stroke:none"
                   id="path148" /></g><g
                 transform="translate(125.9759,37.5746)"
                 id="g154"><path
                   d="m 0,0 c 0.733,0 1.274,0.26 1.621,0.777 0.346,0.518 0.52,1.306 0.52,2.363 0,1.055 -0.174,1.841 -0.52,2.356 C 1.274,6.011 0.733,6.268 0,6.268 -0.755,6.268 -1.308,6.011 -1.657,5.496 -2.007,4.981 -2.182,4.195 -2.182,3.14 -2.182,2.083 -2.007,1.295 -1.657,0.777 -1.308,0.26 -0.755,0 0,0 M 0,8.635 C 0.81,8.635 1.547,8.508 2.212,8.254 2.878,8 3.449,7.637 3.926,7.163 4.402,6.689 4.773,6.115 5.037,5.439 5.302,4.764 5.434,4.004 5.434,3.16 5.434,2.309 5.302,1.542 5.037,0.859 4.773,0.177 4.402,-0.402 3.926,-0.88 3.449,-1.356 2.878,-1.724 2.212,-1.98 1.547,-2.238 0.81,-2.366 0,-2.366 c -0.816,0 -1.56,0.128 -2.229,0.386 -0.668,0.256 -1.245,0.624 -1.728,1.1 -0.483,0.478 -0.857,1.057 -1.122,1.739 -0.264,0.683 -0.397,1.45 -0.397,2.301 0,0.844 0.133,1.604 0.397,2.279 0.265,0.676 0.639,1.25 1.122,1.724 C -3.474,7.637 -2.897,8 -2.229,8.254 -1.56,8.508 -0.816,8.635 0,8.635"
                   style="fill:#0872ba;fill-opacity:1;fill-rule:nonzero;stroke:none"
                   id="path152" /></g><g
                 transform="translate(135.8968,44.3979)"
                 id="g158"><path
                   d="m 0,0 c 0.329,0.576 0.708,1.029 1.137,1.358 0.428,0.329 0.921,0.495 1.476,0.495 0.481,0 0.871,-0.114 1.174,-0.34 L 3.581,-0.833 C 3.547,-0.984 3.49,-1.087 3.411,-1.143 3.332,-1.197 3.224,-1.225 3.087,-1.225 c -0.055,0 -0.127,0.004 -0.216,0.011 -0.09,0.007 -0.182,0.016 -0.278,0.026 -0.096,0.01 -0.194,0.02 -0.293,0.031 -0.1,0.01 -0.191,0.014 -0.273,0.014 -0.466,0 -0.839,-0.123 -1.117,-0.37 C 0.633,-1.76 0.397,-2.103 0.205,-2.542 V -9.025 H -2.984 V 1.646 h 1.893 c 0.157,0 0.289,-0.013 0.396,-0.041 0.106,-0.027 0.195,-0.07 0.267,-0.128 0.073,-0.058 0.127,-0.135 0.165,-0.232 0.037,-0.096 0.071,-0.212 0.098,-0.349 z"
                   style="fill:#0872ba;fill-opacity:1;fill-rule:nonzero;stroke:none"
                   id="path156" /></g><g
                 transform="translate(148.3177,43.5131)"
                 id="g162"><path
                   d="m 0,0 c -0.097,-0.117 -0.189,-0.209 -0.278,-0.278 -0.089,-0.069 -0.216,-0.103 -0.381,-0.103 -0.158,0 -0.3,0.038 -0.427,0.113 -0.127,0.076 -0.269,0.16 -0.428,0.252 -0.157,0.093 -0.342,0.177 -0.555,0.252 -0.212,0.076 -0.477,0.114 -0.792,0.114 -0.391,0 -0.73,-0.073 -1.014,-0.216 -0.285,-0.145 -0.52,-0.35 -0.705,-0.617 -0.186,-0.268 -0.322,-0.596 -0.411,-0.984 -0.09,-0.387 -0.134,-0.825 -0.134,-1.311 0,-1.023 0.196,-1.809 0.592,-2.358 0.393,-0.549 0.937,-0.823 1.631,-0.823 0.37,0 0.664,0.047 0.88,0.14 0.215,0.091 0.399,0.195 0.55,0.308 0.151,0.114 0.289,0.218 0.416,0.314 0.127,0.095 0.287,0.144 0.479,0.144 0.254,0 0.446,-0.093 0.577,-0.278 L 0.926,-6.474 C 0.597,-6.851 0.25,-7.157 -0.113,-7.395 -0.478,-7.631 -0.85,-7.816 -1.23,-7.95 c -0.381,-0.134 -0.763,-0.227 -1.148,-0.278 -0.384,-0.051 -0.758,-0.077 -1.121,-0.077 -0.652,0 -1.274,0.123 -1.868,0.37 -0.594,0.248 -1.115,0.606 -1.565,1.076 -0.449,0.469 -0.805,1.047 -1.07,1.734 -0.264,0.686 -0.396,1.468 -0.396,2.347 0,0.767 0.115,1.486 0.344,2.155 0.231,0.669 0.571,1.249 1.02,1.739 0.449,0.491 1.005,0.877 1.667,1.158 0.662,0.282 1.429,0.422 2.3,0.422 0.837,0 1.571,-0.133 2.202,-0.401 0.632,-0.268 1.201,-0.658 1.709,-1.173 z"
                   style="fill:#0872ba;fill-opacity:1;fill-rule:nonzero;stroke:none"
                   id="path160" /></g><g
                 transform="translate(156.8397,41.9897)"
                 id="g166"><path
                   d="M 0,0 C 0,0.254 -0.033,0.501 -0.098,0.741 -0.163,0.981 -0.27,1.195 -0.417,1.385 -0.564,1.573 -0.759,1.726 -0.999,1.843 -1.239,1.959 -1.53,2.018 -1.873,2.018 -2.478,2.018 -2.95,1.844 -3.294,1.498 -3.637,1.151 -3.864,0.652 -3.973,0 Z m -4.014,-1.853 c 0.102,-0.891 0.374,-1.538 0.813,-1.939 0.439,-0.401 1.005,-0.603 1.698,-0.603 0.37,0 0.69,0.045 0.957,0.134 0.268,0.09 0.506,0.19 0.716,0.299 0.209,0.109 0.401,0.209 0.576,0.299 0.175,0.089 0.358,0.134 0.55,0.134 0.254,0 0.446,-0.093 0.577,-0.279 L 2.799,-4.95 C 2.47,-5.327 2.114,-5.634 1.733,-5.871 1.353,-6.107 0.962,-6.293 0.561,-6.427 0.159,-6.561 -0.242,-6.653 -0.644,-6.704 c -0.401,-0.052 -0.784,-0.077 -1.147,-0.077 -0.748,0 -1.449,0.121 -2.105,0.365 -0.655,0.243 -1.229,0.605 -1.719,1.086 -0.49,0.479 -0.878,1.076 -1.163,1.79 -0.284,0.714 -0.427,1.544 -0.427,2.49 0,0.714 0.122,1.39 0.366,2.028 0.243,0.638 0.593,1.197 1.049,1.677 0.457,0.481 1.009,0.862 1.658,1.143 0.648,0.281 1.38,0.422 2.196,0.422 0.707,0 1.354,-0.111 1.941,-0.329 C 0.592,3.671 1.096,3.352 1.518,2.934 1.939,2.515 2.269,2.002 2.506,1.395 2.742,0.787 2.86,0.1 2.86,-0.669 2.86,-0.909 2.851,-1.104 2.83,-1.255 2.81,-1.406 2.771,-1.526 2.717,-1.615 2.661,-1.705 2.588,-1.767 2.495,-1.801 2.402,-1.835 2.284,-1.853 2.141,-1.853 Z"
                   style="fill:#0872ba;fill-opacity:1;fill-rule:nonzero;stroke:none"
                   id="path164" /></g><g
                 transform="translate(167.6658,43.184)"
                 id="g170"><path
                   d="M 0,0 C -0.24,0.268 -0.501,0.454 -0.782,0.561 -1.063,0.667 -1.358,0.72 -1.667,0.72 -1.962,0.72 -2.233,0.662 -2.48,0.545 -2.728,0.429 -2.941,0.241 -3.123,-0.016 -3.306,-0.273 -3.447,-0.607 -3.551,-1.02 c -0.102,-0.411 -0.154,-0.909 -0.154,-1.492 0,-0.562 0.041,-1.035 0.124,-1.42 0.082,-0.383 0.197,-0.694 0.345,-0.931 0.147,-0.237 0.324,-0.407 0.529,-0.509 0.206,-0.104 0.436,-0.154 0.69,-0.154 0.233,0 0.444,0.021 0.633,0.066 0.189,0.045 0.362,0.108 0.52,0.19 0.157,0.083 0.306,0.188 0.447,0.315 0.141,0.127 0.279,0.272 0.417,0.436 z M 3.19,7.595 V -7.812 H 1.215 c -0.399,0 -0.659,0.179 -0.782,0.536 l -0.247,0.813 c -0.213,-0.226 -0.437,-0.433 -0.669,-0.618 -0.234,-0.185 -0.486,-0.345 -0.757,-0.479 -0.271,-0.133 -0.563,-0.236 -0.875,-0.308 -0.312,-0.071 -0.65,-0.108 -1.014,-0.108 -0.556,0 -1.07,0.123 -1.543,0.371 -0.474,0.247 -0.882,0.603 -1.224,1.07 -0.344,0.467 -0.613,1.038 -0.809,1.714 -0.195,0.675 -0.293,1.445 -0.293,2.309 0,0.796 0.109,1.535 0.329,2.218 0.22,0.683 0.53,1.273 0.932,1.771 0.401,0.497 0.883,0.886 1.446,1.168 0.562,0.281 1.183,0.421 1.862,0.421 0.556,0 1.023,-0.079 1.4,-0.236 C -0.652,2.672 -0.309,2.459 0,2.191 v 5.404 z"
                   style="fill:#0872ba;fill-opacity:1;fill-rule:nonzero;stroke:none"
                   id="path168" /></g><g
                 transform="translate(187.9793,42.8754)"
                 id="g174"><path
                   d="M 0,0 C 0,0.74 -0.096,1.409 -0.288,2.007 -0.48,2.604 -0.756,3.109 -1.116,3.524 -1.477,3.939 -1.918,4.259 -2.438,4.481 -2.96,4.704 -3.554,4.815 -4.22,4.815 h -2.325 v -9.642 h 2.325 c 0.666,0 1.26,0.111 1.782,0.335 0.52,0.222 0.961,0.542 1.322,0.957 0.36,0.415 0.636,0.921 0.828,1.517 C -0.096,-1.421 0,-0.748 0,0 M 3.561,0 C 3.561,-1.085 3.374,-2.084 3,-3 2.626,-3.916 2.1,-4.709 1.42,-5.378 0.741,-6.047 -0.077,-6.568 -1.034,-6.941 -1.991,-7.315 -3.053,-7.503 -4.22,-7.503 h -5.824 V 7.491 h 5.824 c 1.167,0 2.229,-0.188 3.186,-0.565 C -0.077,6.548 0.741,6.026 1.42,5.361 2.1,4.695 2.626,3.905 3,2.989 3.374,2.073 3.561,1.076 3.561,0"
                   style="fill:#0872ba;fill-opacity:1;fill-rule:nonzero;stroke:none"
                   id="path172" /></g><path
                 d="m 196.233,35.372 h -3.19 v 10.672 h 3.19 z m 0.329,13.595 c 0,-0.254 -0.05,-0.492 -0.154,-0.715 -0.103,-0.223 -0.243,-0.419 -0.422,-0.587 -0.179,-0.168 -0.386,-0.301 -0.622,-0.401 -0.237,-0.1 -0.489,-0.149 -0.757,-0.149 -0.26,0 -0.504,0.049 -0.73,0.149 -0.227,0.1 -0.427,0.233 -0.603,0.401 -0.175,0.168 -0.311,0.364 -0.411,0.587 -0.099,0.223 -0.149,0.461 -0.149,0.715 0,0.261 0.05,0.505 0.149,0.731 0.1,0.226 0.236,0.425 0.411,0.597 0.176,0.171 0.376,0.305 0.603,0.402 0.226,0.095 0.47,0.143 0.73,0.143 0.268,0 0.52,-0.048 0.757,-0.143 0.236,-0.097 0.443,-0.231 0.622,-0.402 0.179,-0.172 0.319,-0.371 0.422,-0.597 0.104,-0.226 0.154,-0.47 0.154,-0.731"
                 style="fill:#0872ba;fill-opacity:1;fill-rule:nonzero;stroke:none"
                 id="path176" /><g
                 transform="translate(205.1444,43.7084)"
                 id="g180"><path
                   d="m 0,0 c -0.082,-0.13 -0.17,-0.223 -0.263,-0.277 -0.091,-0.056 -0.211,-0.083 -0.354,-0.083 -0.152,0 -0.302,0.033 -0.453,0.097 -0.151,0.066 -0.314,0.136 -0.489,0.211 -0.175,0.076 -0.373,0.147 -0.591,0.212 -0.22,0.065 -0.471,0.098 -0.752,0.098 -0.405,0 -0.715,-0.077 -0.931,-0.232 -0.217,-0.155 -0.324,-0.369 -0.324,-0.643 0,-0.199 0.07,-0.364 0.211,-0.494 0.14,-0.13 0.327,-0.245 0.56,-0.345 0.234,-0.1 0.497,-0.194 0.793,-0.283 0.295,-0.089 0.597,-0.189 0.906,-0.298 0.308,-0.11 0.61,-0.239 0.905,-0.387 0.295,-0.147 0.559,-0.329 0.793,-0.545 0.232,-0.216 0.42,-0.478 0.56,-0.787 0.141,-0.308 0.211,-0.68 0.211,-1.111 0,-0.529 -0.095,-1.016 -0.288,-1.462 -0.192,-0.446 -0.478,-0.83 -0.859,-1.152 -0.381,-0.323 -0.851,-0.574 -1.41,-0.751 -0.559,-0.179 -1.203,-0.268 -1.93,-0.268 -0.363,0 -0.727,0.034 -1.091,0.103 -0.363,0.068 -0.715,0.161 -1.055,0.278 -0.339,0.116 -0.653,0.255 -0.941,0.416 -0.288,0.161 -0.535,0.335 -0.741,0.52 l 0.741,1.173 c 0.082,0.137 0.187,0.245 0.313,0.324 0.127,0.08 0.291,0.119 0.49,0.119 0.185,0 0.351,-0.041 0.499,-0.123 0.147,-0.083 0.306,-0.172 0.478,-0.268 0.172,-0.097 0.372,-0.186 0.603,-0.268 0.229,-0.083 0.519,-0.124 0.869,-0.124 0.247,0 0.456,0.026 0.628,0.078 0.171,0.051 0.308,0.122 0.411,0.21 0.104,0.089 0.179,0.189 0.227,0.299 0.047,0.11 0.072,0.223 0.072,0.34 0,0.212 -0.072,0.387 -0.216,0.525 -0.145,0.136 -0.333,0.255 -0.566,0.355 -0.234,0.099 -0.499,0.191 -0.798,0.277 -0.298,0.086 -0.602,0.184 -0.91,0.293 -0.309,0.111 -0.613,0.243 -0.912,0.397 -0.297,0.154 -0.564,0.349 -0.797,0.587 -0.233,0.236 -0.422,0.526 -0.566,0.869 -0.144,0.344 -0.216,0.759 -0.216,1.245 0,0.453 0.087,0.884 0.262,1.292 0.175,0.408 0.438,0.767 0.787,1.075 0.351,0.309 0.789,0.554 1.318,0.737 0.528,0.181 1.145,0.272 1.852,0.272 0.385,0 0.757,-0.034 1.117,-0.103 0.36,-0.069 0.698,-0.165 1.014,-0.288 0.315,-0.124 0.604,-0.269 0.864,-0.437 0.261,-0.169 0.49,-0.352 0.69,-0.551 z"
                   style="fill:#0872ba;fill-opacity:1;fill-rule:nonzero;stroke:none"
                   id="path178" /></g><g
                 transform="translate(210.619,38.2748)"
                 id="g184"><path
                   d="m 0,0 c 0.24,-0.261 0.501,-0.446 0.782,-0.556 0.281,-0.11 0.576,-0.165 0.886,-0.165 0.295,0 0.565,0.059 0.812,0.175 0.248,0.117 0.461,0.304 0.644,0.562 0.182,0.256 0.324,0.591 0.427,1.003 0.102,0.412 0.154,0.913 0.154,1.502 0,0.563 -0.041,1.037 -0.123,1.42 C 3.499,4.326 3.385,4.636 3.237,4.873 3.089,5.109 2.913,5.279 2.707,5.382 2.501,5.485 2.271,5.537 2.018,5.537 1.551,5.537 1.167,5.451 0.865,5.279 0.562,5.107 0.274,4.857 0,4.528 Z M -0.195,6.452 C 0.224,6.898 0.698,7.264 1.23,7.549 1.762,7.833 2.395,7.976 3.129,7.976 3.685,7.976 4.199,7.853 4.673,7.605 5.146,7.358 5.554,7.001 5.897,6.535 6.24,6.068 6.51,5.497 6.705,4.821 6.9,4.146 6.998,3.379 6.998,2.521 6.998,1.719 6.887,0.978 6.664,0.299 6.44,-0.381 6.129,-0.971 5.728,-1.472 5.326,-1.973 4.846,-2.363 4.286,-2.645 3.728,-2.926 3.108,-3.066 2.429,-3.066 c -0.556,0 -1.023,0.078 -1.4,0.236 C 0.652,-2.672 0.309,-2.46 0,-2.192 V -6.288 H -3.189 V 7.77 h 1.975 c 0.398,0 0.658,-0.178 0.782,-0.536 z"
                   style="fill:#0872ba;fill-opacity:1;fill-rule:nonzero;stroke:none"
                   id="path182" /></g><path
                 d="m 222.351,35.372 h -3.189 v 15.406 h 3.189 z"
                 style="fill:#0872ba;fill-opacity:1;fill-rule:nonzero;stroke:none"
                 id="path186" /><g
                 transform="translate(229.9149,39.7152)"
                 id="g190"><path
                   d="m 0,0 c -0.638,-0.027 -1.162,-0.082 -1.574,-0.164 -0.411,-0.083 -0.738,-0.186 -0.978,-0.309 -0.24,-0.124 -0.406,-0.264 -0.499,-0.422 -0.093,-0.158 -0.138,-0.33 -0.138,-0.514 0,-0.364 0.098,-0.619 0.297,-0.767 0.2,-0.148 0.491,-0.221 0.875,-0.221 0.412,0 0.772,0.072 1.08,0.215 0.31,0.145 0.622,0.378 0.937,0.701 z m -5.742,4.848 c 0.644,0.569 1.36,0.993 2.145,1.27 0.786,0.278 1.628,0.417 2.527,0.417 0.645,0 1.226,-0.104 1.745,-0.313 C 1.192,6.012 1.632,5.721 1.992,5.347 2.352,4.973 2.628,4.528 2.82,4.014 3.012,3.499 3.108,2.937 3.108,2.326 V -4.343 H 1.647 c -0.302,0 -0.53,0.041 -0.684,0.124 -0.154,0.082 -0.283,0.254 -0.386,0.515 l -0.226,0.586 c -0.268,-0.227 -0.526,-0.425 -0.773,-0.597 -0.247,-0.172 -0.502,-0.317 -0.766,-0.437 -0.264,-0.12 -0.545,-0.209 -0.844,-0.268 -0.298,-0.058 -0.629,-0.087 -0.993,-0.087 -0.488,0 -0.93,0.064 -1.328,0.191 -0.398,0.127 -0.736,0.313 -1.013,0.56 -0.279,0.247 -0.492,0.554 -0.644,0.921 -0.15,0.367 -0.226,0.791 -0.226,1.272 0,0.383 0.096,0.773 0.288,1.167 0.192,0.395 0.525,0.754 0.999,1.081 0.472,0.326 1.111,0.598 1.914,0.818 0.803,0.22 1.814,0.343 3.035,0.37 V 2.326 C 0,2.95 -0.128,3.401 -0.386,3.68 -0.643,3.957 -1.008,4.097 -1.481,4.097 -1.859,4.097 -2.168,4.055 -2.407,3.973 -2.648,3.891 -2.862,3.798 -3.051,3.695 -3.239,3.592 -3.423,3.499 -3.602,3.417 -3.78,3.335 -3.992,3.294 -4.239,3.294 c -0.22,0 -0.406,0.055 -0.556,0.164 -0.151,0.109 -0.274,0.24 -0.371,0.392 z"
                   style="fill:#0872ba;fill-opacity:1;fill-rule:nonzero;stroke:none"
                   id="path188" /></g><g
                 transform="translate(242.8006,43.5131)"
                 id="g194"><path
                   d="m 0,0 c -0.097,-0.117 -0.189,-0.209 -0.278,-0.278 -0.089,-0.069 -0.216,-0.103 -0.381,-0.103 -0.158,0 -0.3,0.038 -0.427,0.113 -0.127,0.076 -0.269,0.16 -0.428,0.252 -0.157,0.093 -0.342,0.177 -0.555,0.252 -0.212,0.076 -0.477,0.114 -0.792,0.114 -0.391,0 -0.73,-0.073 -1.014,-0.216 -0.285,-0.145 -0.52,-0.35 -0.705,-0.617 -0.186,-0.268 -0.322,-0.596 -0.411,-0.984 -0.09,-0.387 -0.134,-0.825 -0.134,-1.311 0,-1.023 0.196,-1.809 0.592,-2.358 0.393,-0.549 0.937,-0.823 1.631,-0.823 0.37,0 0.664,0.047 0.88,0.14 0.215,0.091 0.399,0.195 0.55,0.308 0.151,0.114 0.289,0.218 0.416,0.314 0.127,0.095 0.287,0.144 0.479,0.144 0.254,0 0.446,-0.093 0.577,-0.278 L 0.926,-6.474 C 0.597,-6.851 0.25,-7.157 -0.113,-7.395 -0.478,-7.631 -0.85,-7.816 -1.23,-7.95 c -0.381,-0.134 -0.763,-0.227 -1.148,-0.278 -0.384,-0.051 -0.758,-0.077 -1.121,-0.077 -0.652,0 -1.274,0.123 -1.868,0.37 -0.594,0.248 -1.115,0.606 -1.565,1.076 -0.449,0.469 -0.805,1.047 -1.07,1.734 -0.264,0.686 -0.396,1.468 -0.396,2.347 0,0.767 0.115,1.486 0.344,2.155 0.231,0.669 0.571,1.249 1.02,1.739 0.449,0.491 1.005,0.877 1.667,1.158 0.662,0.282 1.429,0.422 2.3,0.422 0.837,0 1.571,-0.133 2.202,-0.401 0.632,-0.268 1.201,-0.658 1.709,-1.173 z"
                   style="fill:#0872ba;fill-opacity:1;fill-rule:nonzero;stroke:none"
                   id="path192" /></g><g
                 transform="translate(251.3231,41.9897)"
                 id="g198"><path
                   d="M 0,0 C 0,0.254 -0.033,0.501 -0.098,0.741 -0.163,0.981 -0.27,1.195 -0.417,1.385 -0.564,1.573 -0.759,1.726 -0.999,1.843 -1.239,1.959 -1.53,2.018 -1.873,2.018 -2.478,2.018 -2.95,1.844 -3.294,1.498 -3.637,1.151 -3.863,0.652 -3.973,0 Z m -4.014,-1.853 c 0.103,-0.891 0.374,-1.538 0.813,-1.939 0.439,-0.401 1.005,-0.603 1.698,-0.603 0.37,0 0.69,0.045 0.957,0.134 0.268,0.09 0.506,0.19 0.716,0.299 0.209,0.109 0.401,0.209 0.576,0.299 0.175,0.089 0.358,0.134 0.55,0.134 0.254,0 0.446,-0.093 0.577,-0.279 L 2.799,-4.95 C 2.47,-5.327 2.114,-5.634 1.733,-5.871 1.353,-6.107 0.962,-6.293 0.561,-6.427 0.159,-6.561 -0.242,-6.653 -0.644,-6.704 c -0.401,-0.052 -0.784,-0.077 -1.147,-0.077 -0.748,0 -1.449,0.121 -2.105,0.365 -0.655,0.243 -1.228,0.605 -1.718,1.086 -0.49,0.479 -0.878,1.076 -1.163,1.79 -0.285,0.714 -0.427,1.544 -0.427,2.49 0,0.714 0.122,1.39 0.365,2.028 0.243,0.638 0.594,1.197 1.05,1.677 0.456,0.481 1.009,0.862 1.657,1.143 0.648,0.281 1.38,0.422 2.196,0.422 0.707,0 1.354,-0.111 1.941,-0.329 C 0.592,3.671 1.096,3.352 1.518,2.934 1.939,2.515 2.269,2.002 2.506,1.395 2.742,0.787 2.86,0.1 2.86,-0.669 2.86,-0.909 2.851,-1.104 2.83,-1.255 2.81,-1.406 2.771,-1.526 2.717,-1.615 2.661,-1.705 2.588,-1.767 2.495,-1.801 2.402,-1.835 2.284,-1.853 2.141,-1.853 Z"
                   style="fill:#0872ba;fill-opacity:1;fill-rule:nonzero;stroke:none"
                   id="path196" /></g><g
                 transform="translate(255.6756,35.3725)"
                 id="g202"><path
                   d="m 0,0 v 10.672 h 1.976 c 0.397,0 0.658,-0.178 0.782,-0.535 L 2.933,9.561 c 0.177,0.185 0.363,0.355 0.555,0.509 0.193,0.155 0.4,0.288 0.623,0.402 0.223,0.113 0.463,0.202 0.72,0.267 0.258,0.066 0.54,0.098 0.85,0.098 0.644,0 1.177,-0.166 1.599,-0.499 0.422,-0.333 0.743,-0.777 0.963,-1.333 0.178,0.329 0.396,0.61 0.653,0.844 0.257,0.233 0.536,0.422 0.834,0.566 0.298,0.144 0.614,0.25 0.947,0.319 0.333,0.069 0.664,0.103 0.993,0.103 0.61,0 1.152,-0.091 1.626,-0.273 0.474,-0.182 0.869,-0.446 1.188,-0.793 C 14.804,9.425 15.045,9 15.21,8.496 15.375,7.991 15.457,7.42 15.457,6.782 V 0 h -3.19 v 6.782 c 0,1.105 -0.474,1.657 -1.42,1.657 -0.433,0 -0.791,-0.142 -1.076,-0.427 C 9.486,7.728 9.344,7.317 9.344,6.782 V 0 H 6.153 v 6.782 c 0,0.611 -0.12,1.039 -0.359,1.286 C 5.554,8.315 5.2,8.439 4.733,8.439 4.445,8.439 4.173,8.374 3.915,8.243 3.658,8.113 3.416,7.938 3.189,7.719 V 0 Z"
                   style="fill:#0872ba;fill-opacity:1;fill-rule:nonzero;stroke:none"
                   id="path200" /></g><g
                 transform="translate(279.7264,41.9897)"
                 id="g206"><path
                   d="M 0,0 C 0,0.254 -0.033,0.501 -0.098,0.741 -0.163,0.981 -0.27,1.195 -0.417,1.385 -0.564,1.573 -0.759,1.726 -0.999,1.843 -1.239,1.959 -1.53,2.018 -1.873,2.018 -2.478,2.018 -2.95,1.844 -3.294,1.498 -3.637,1.151 -3.863,0.652 -3.973,0 Z m -4.014,-1.853 c 0.103,-0.891 0.374,-1.538 0.813,-1.939 0.439,-0.401 1.005,-0.603 1.698,-0.603 0.37,0 0.69,0.045 0.957,0.134 0.268,0.09 0.506,0.19 0.716,0.299 0.209,0.109 0.401,0.209 0.576,0.299 0.175,0.089 0.358,0.134 0.55,0.134 0.254,0 0.446,-0.093 0.577,-0.279 L 2.799,-4.95 C 2.47,-5.327 2.114,-5.634 1.733,-5.871 1.353,-6.107 0.962,-6.293 0.561,-6.427 0.159,-6.561 -0.242,-6.653 -0.644,-6.704 c -0.401,-0.052 -0.784,-0.077 -1.147,-0.077 -0.748,0 -1.449,0.121 -2.105,0.365 -0.655,0.243 -1.228,0.605 -1.718,1.086 -0.49,0.479 -0.878,1.076 -1.163,1.79 -0.285,0.714 -0.427,1.544 -0.427,2.49 0,0.714 0.122,1.39 0.365,2.028 0.243,0.638 0.594,1.197 1.05,1.677 0.456,0.481 1.009,0.862 1.657,1.143 0.648,0.281 1.38,0.422 2.196,0.422 0.707,0 1.354,-0.111 1.941,-0.329 C 0.592,3.671 1.096,3.352 1.518,2.934 1.939,2.515 2.269,2.002 2.506,1.395 2.742,0.787 2.86,0.1 2.86,-0.669 2.86,-0.909 2.851,-1.104 2.83,-1.255 2.81,-1.406 2.771,-1.526 2.717,-1.615 2.661,-1.705 2.588,-1.767 2.495,-1.801 2.402,-1.835 2.284,-1.853 2.141,-1.853 Z"
                   style="fill:#0872ba;fill-opacity:1;fill-rule:nonzero;stroke:none"
                   id="path204" /></g><g
                 transform="translate(287.0213,44.892)"
                 id="g210"><path
                   d="m 0,0 c 0.206,0.192 0.419,0.37 0.639,0.535 0.219,0.165 0.454,0.304 0.705,0.417 0.25,0.113 0.52,0.202 0.812,0.268 0.292,0.065 0.61,0.097 0.952,0.097 0.583,0 1.1,-0.101 1.549,-0.303 C 5.106,0.812 5.485,0.53 5.794,0.17 6.104,-0.19 6.336,-0.619 6.494,-1.116 6.652,-1.614 6.73,-2.154 6.73,-2.737 V -9.52 H 3.541 v 6.783 c 0,0.521 -0.12,0.927 -0.36,1.219 C 2.94,-1.227 2.587,-1.08 2.12,-1.08 1.771,-1.08 1.442,-1.154 1.138,-1.302 0.832,-1.449 0.535,-1.65 0.247,-1.903 V -9.52 H -2.942 V 1.152 h 1.975 c 0.398,0 0.658,-0.177 0.782,-0.535 z"
                   style="fill:#0872ba;fill-opacity:1;fill-rule:nonzero;stroke:none"
                   id="path208" /></g><g
                 transform="translate(299.3807,35.2084)"
                 id="g214"><path
                   d="M 0,0 C -0.508,0 -0.955,0.073 -1.343,0.221 -1.73,0.368 -2.057,0.577 -2.32,0.849 -2.585,1.119 -2.785,1.447 -2.923,1.831 -3.06,2.216 -3.128,2.645 -3.128,3.118 v 5.516 h -0.906 c -0.164,0 -0.305,0.054 -0.422,0.16 -0.116,0.105 -0.175,0.262 -0.175,0.468 v 1.245 l 1.698,0.329 0.628,2.603 c 0.082,0.331 0.316,0.495 0.7,0.495 H 0.062 V 10.815 H 2.707 V 8.634 H 0.062 v -5.3 c 0,-0.247 0.06,-0.451 0.18,-0.612 0.12,-0.161 0.293,-0.243 0.52,-0.243 0.116,0 0.214,0.013 0.293,0.037 0.079,0.024 0.147,0.051 0.206,0.083 0.058,0.03 0.113,0.057 0.165,0.082 0.051,0.023 0.111,0.036 0.179,0.036 0.096,0 0.173,-0.023 0.232,-0.068 C 1.896,2.604 1.955,2.534 2.018,2.438 L 2.984,0.926 C 2.573,0.617 2.109,0.386 1.596,0.231 1.081,0.077 0.549,0 0,0"
                   style="fill:#0872ba;fill-opacity:1;fill-rule:nonzero;stroke:none"
                   id="path212" /></g></g></g></g></g></g><g
       id="g220"><g
         id="g222"><g
           id="g228"><g
             id="g230"><path
               d="m 80.762,12.535 c 0,-1.022 0.146,-2.01 0.414,-2.947 v 0 c 0.016,-0.064 0.031,-0.126 0.049,-0.19 v 0 c 0.005,-0.012 0.01,-0.023 0.014,-0.035 v 0 C 82.596,4.977 86.69,1.781 91.516,1.781 v 0 c 2.233,0 4.309,0.683 6.03,1.852 v 0 c 0.017,0.01 0.034,0.019 0.051,0.029 v 0 c 0.102,0.071 0.201,0.144 0.296,0.221 v 0 c 1.979,1.461 3.441,3.584 4.056,6.04 v 0 c 0.035,0.114 0.064,0.228 0.09,0.344 v 0 c 0.006,0.028 0.008,0.055 0.008,0.082 v 0 c 0.147,0.706 0.224,1.437 0.224,2.186 v 0 c 0,1.452 -0.284,2.861 -0.845,4.186 v 0 c -0.108,0.255 -0.401,0.375 -0.655,0.266 v 0 c -0.254,-0.107 -0.373,-0.401 -0.266,-0.656 v 0 c 0.508,-1.201 0.766,-2.478 0.766,-3.796 v 0 c 0,-0.807 -0.1,-1.591 -0.287,-2.342 v 0 C 100.837,9.72 100.577,9.282 100.219,8.884 v 0 c 0.009,0.17 0.014,0.342 0.015,0.516 v 0 c 0.004,1.919 -0.528,3.946 -1.511,5.851 v 0 c 0.722,0.62 1.181,1.386 1.339,2.241 v 0 c 0.051,0.272 -0.129,0.533 -0.401,0.584 v 0 c -0.271,0.05 -0.532,-0.129 -0.583,-0.402 v 0 C 98.974,17.108 98.68,16.59 98.22,16.147 v 0 c -0.143,0.237 -0.292,0.471 -0.449,0.702 v 0 c -0.879,1.287 -1.922,2.4 -3.063,3.289 v 0 c 1.507,-0.099 2.9,-0.464 4.021,-1.09 v 0 c 0.177,-0.101 0.41,-0.099 0.574,0.039 v 0 c 0.213,0.176 0.242,0.492 0.064,0.706 v 0 c -1.612,2.254 -4.399,3.496 -7.851,3.496 v 0 c -5.93,0 -10.754,-4.824 -10.754,-10.754 m 11.006,9.288 c -0.453,0.174 -0.9,0.308 -1.34,0.404 v 0 c 0.352,0.04 0.711,0.061 1.075,0.062 v 0 c 0.17,-0.001 0.379,-0.207 0.598,-0.602 v 0 c -0.111,0.047 -0.222,0.094 -0.333,0.136 m 1.084,0.394 c 0.406,-0.046 0.838,-0.115 1.283,-0.219 v 0 c -0.278,-0.15 -0.567,-0.338 -0.861,-0.562 v 0 c -0.13,0.294 -0.272,0.556 -0.422,0.781 m 1.685,-1.072 c 0.343,0.223 0.659,0.375 0.923,0.439 v 0 c 0.503,-0.202 0.999,-0.458 1.471,-0.783 v 0 c -0.756,0.189 -1.562,0.304 -2.394,0.344 m -8.116,-1.317 c 0.11,0.518 0.423,0.982 0.905,1.366 v 0 c 1.168,0.348 2.526,0.265 3.955,-0.258 v 0 C 90.68,20.831 90.079,20.693 89.486,20.514 v 0 C 88.382,20.182 87.341,19.73 86.387,19.18 v 0 c -0.021,0.219 -0.01,0.435 0.034,0.648 m -0.939,0.363 C 85.469,20.14 85.454,20.089 85.443,20.037 v 0 c -0.101,-0.473 -0.09,-0.955 0.029,-1.436 v 0 c -1.075,-0.742 -2.011,-1.62 -2.757,-2.606 v 0 c -0.227,-0.301 -0.431,-0.608 -0.614,-0.916 v 0 c 0.553,2.048 1.759,3.831 3.381,5.112 m 2.152,-3.187 c -0.414,0.386 -0.728,0.79 -0.94,1.196 v 0 c 0.938,0.564 1.975,1.024 3.08,1.356 v 0 c 0.657,0.197 1.322,0.344 1.986,0.446 v 0 c -0.958,-1.074 -1.915,-2.438 -2.791,-3.977 v 0 c -0.501,0.29 -0.95,0.617 -1.335,0.979 m 4.275,-2.086 c -0.724,0.154 -1.412,0.378 -2.046,0.656 v 0 c 0.934,1.632 1.954,3.052 2.961,4.108 v 0 c 0.315,-1.238 0.579,-2.902 0.69,-4.967 v 0 c -0.53,0.022 -1.07,0.089 -1.605,0.203 m 1.983,4.583 c 1.137,-0.847 2.18,-1.938 3.052,-3.215 v 0 c 0.165,-0.244 0.321,-0.49 0.469,-0.738 v 0 c -0.799,-0.461 -1.81,-0.738 -2.9,-0.815 v 0 c -0.092,1.725 -0.296,3.387 -0.621,4.768 M 83.881,10.205 c -0.85,0.786 -1.434,1.617 -1.732,2.443 v 0 c 0.235,0.926 0.692,1.854 1.365,2.744 v 0 c 0.637,0.844 1.429,1.604 2.339,2.256 v 0 c 0.262,-0.474 0.63,-0.937 1.097,-1.375 v 0 c 0.445,-0.417 0.963,-0.794 1.538,-1.124 v 0 C 88.33,14.848 88.174,14.543 88.024,14.233 v 0 c -0.888,-1.818 -1.613,-3.77 -2.038,-5.54 v 0 c -0.789,0.445 -1.499,0.953 -2.105,1.512 m 6.487,-3.138 c -1.239,0.265 -2.409,0.659 -3.469,1.157 v 0 c 0.347,1.565 0.995,3.464 2.023,5.57 v 0 c 0.149,0.305 0.302,0.606 0.458,0.899 v 0 c 0.718,-0.322 1.499,-0.577 2.319,-0.753 v 0 c 0.623,-0.133 1.246,-0.206 1.856,-0.227 v 0 c 0.011,-0.375 0.016,-0.761 0.016,-1.161 v 0 c 0,-2.355 -0.188,-4.311 -0.46,-5.838 v 0 C 92.216,6.753 91.295,6.87 90.368,7.067 m 4.204,5.485 c 0,0.391 -0.006,0.783 -0.017,1.174 v 0 c 1.244,0.083 2.397,0.406 3.34,0.949 v 0 c 0.873,-1.728 1.342,-3.552 1.338,-5.273 v 0 C 99.232,8.904 99.189,8.43 99.11,7.983 v 0 C 98.661,7.707 98.144,7.468 97.562,7.272 v 0 C 96.529,6.926 95.365,6.735 94.132,6.703 v 0 c 0.297,1.779 0.44,3.843 0.44,5.849 M 82.137,9.866 c -0.086,0.325 -0.14,0.657 -0.161,0.993 v 0 c 0.334,-0.476 0.74,-0.941 1.225,-1.388 v 0 C 83.933,8.794 84.803,8.19 85.77,7.672 v 0 C 85.573,6.565 85.517,5.563 85.642,4.755 v 0 c -1.668,1.262 -2.918,3.048 -3.505,5.111 m 5.158,-6.124 c -0.03,0.025 -0.062,0.048 -0.098,0.064 v 0 c -0.555,0.272 -0.78,1.509 -0.49,3.405 v 0 C 87.774,6.73 88.937,6.35 90.159,6.089 v 0 c 0.926,-0.198 1.849,-0.32 2.751,-0.367 v 0 C 92.468,3.798 91.901,2.789 91.525,2.789 v 0 c -0.024,0 -0.047,-0.003 -0.07,-0.006 v 0 c -1.489,0.01 -2.9,0.351 -4.16,0.959 m 6.646,1.96 c 1.413,0.017 2.753,0.224 3.939,0.621 v 0 c 0.299,0.101 0.584,0.213 0.854,0.333 v 0 C 98.404,5.85 97.919,5.178 97.287,4.678 v 0 C 96.041,3.759 94.569,3.13 92.972,2.889 v 0 c 0.4,0.691 0.723,1.666 0.969,2.813"
               style="fill:url(#radialGradient240);stroke:none"
               id="path242" /></g></g></g></g><g
       id="g244"><g
         id="g246"
         clip-path="url(#clipPath250)"><g
           id="g252"
           transform="translate(111.7552,15.6791)"><path
             d="m 0,0 h 1.515 l -1.806,-6.288 h -1.512 l -1.098,3.943 -1.115,-3.943 H -5.527 L -7.333,0 h 1.559 L -4.718,-4.589 -3.45,0 h 1.126 l 1.225,-4.589 z m 4.521,-5.168 c 0.533,0 1.426,0.262 1.426,2.016 0,1.754 -0.893,2.015 -1.426,2.015 -0.924,0 -1.434,-0.716 -1.434,-2.015 0,-1.3 0.51,-2.016 1.434,-2.016 m 0,5.221 c 1.359,0 2.81,-0.842 2.81,-3.205 0,-2.351 -1.451,-3.189 -2.81,-3.189 -1.362,0 -2.818,0.838 -2.818,3.189 0,2.363 1.456,3.205 2.818,3.205 M 9.435,-2.94 h 0.748 c 0.743,0 1.205,0.346 1.205,0.906 0,0.587 -0.404,0.924 -1.108,0.924 H 9.435 Z m 2.772,-1.442 c 0.221,-0.45 0.413,-0.839 0.855,-0.839 h 0.317 v -1.035 l -0.046,-0.013 c -0.009,-0.002 -0.241,-0.063 -0.649,-0.063 -1.058,0 -1.383,0.728 -1.669,1.37 -0.235,0.526 -0.438,0.982 -0.991,0.982 H 9.435 V -6.288 H 8.095 V 0 h 2.229 c 1.628,0 2.387,-0.635 2.387,-1.999 0,-0.844 -0.507,-1.364 -1.012,-1.588 0.223,-0.216 0.368,-0.51 0.508,-0.795 M 15.352,0 h -1.34 v -6.288 h 4.06 v 1.111 h -2.72 z m 4.683,-5.177 h 0.783 c 0.965,0 1.54,0.728 1.54,1.946 0,1.407 -0.609,2.121 -1.813,2.121 h -0.51 z M 20.563,0 c 1.957,0 3.126,-1.215 3.126,-3.249 0,-1.932 -1.043,-3.039 -2.862,-3.039 H 18.695 V 0 Z m 6.859,-5.177 h 1.047 c 0.684,0 1.003,0.257 1.003,0.809 0,0.677 -0.559,0.818 -1.03,0.818 h -1.02 z m 0.915,2.606 c 0.558,0 0.818,0.235 0.818,0.739 0,0.478 -0.331,0.722 -0.985,0.722 h -0.748 v -1.461 z m 1.492,-0.403 c 0.483,-0.138 1.115,-0.581 1.115,-1.526 0,-1.136 -0.806,-1.788 -2.211,-1.788 H 26.082 V 0 h 2.396 c 1.362,0 2.053,-0.568 2.053,-1.691 0,-0.869 -0.396,-1.175 -0.702,-1.283 m 4.213,1.259 -0.679,-1.983 h 1.375 z m 0.684,1.674 2.294,-6.247 H 35.627 L 35.09,-4.747 H 32.995 L 32.476,-6.288 H 31.073 L 33.382,0 h 1.329 z m 6.21,-3.843 -2.2,3.884 h -1.358 v -6.288 h 1.34 v 3.75 l 2.191,-3.75 h 1.366 V 0 H 40.936 Z M 48.51,0 H 46.917 L 44.836,-2.83 V 0 H 43.48 v -6.288 h 1.356 v 2.893 l 2.134,-2.893 h 1.612 l -2.435,3.171 z m 4.011,-3.99 h 1.383 v -0.07 c 0,-0.408 -0.145,-1.09 -1.109,-1.09 -0.91,0 -1.452,0.747 -1.452,1.998 0,1.28 0.52,2.015 1.425,2.015 1.078,0 1.116,-1.091 1.117,-1.136 l 0.003,-0.072 1.249,0.196 v 0.053 c 0,0.453 -0.404,2.149 -2.386,2.149 -1.775,0 -2.792,-1.168 -2.792,-3.205 0,-1.996 1.05,-3.189 2.809,-3.189 1.769,0 2.397,1.234 2.397,2.29 v 1.092 h -2.644 z m 4.905,1.05 h 0.748 c 0.743,0 1.206,0.346 1.206,0.906 0,0.587 -0.404,0.924 -1.109,0.924 h -0.845 z m 2.773,-1.442 c 0.22,-0.45 0.412,-0.839 0.854,-0.839 h 0.318 v -1.035 l -0.045,-0.013 c -0.01,-0.002 -0.243,-0.063 -0.651,-0.063 -1.058,0 -1.383,0.728 -1.669,1.37 -0.234,0.526 -0.437,0.982 -0.991,0.982 h -0.589 v -2.308 h -1.34 V 0 h 2.229 c 1.629,0 2.388,-0.635 2.388,-1.999 0,-0.844 -0.507,-1.364 -1.013,-1.588 0.224,-0.216 0.368,-0.51 0.509,-0.795 m 4.2,-0.786 c 0.532,0 1.426,0.262 1.426,2.016 0,1.754 -0.894,2.015 -1.426,2.015 -0.925,0 -1.435,-0.716 -1.435,-2.015 0,-1.3 0.51,-2.016 1.435,-2.016 m 0,5.221 c 1.358,0 2.809,-0.842 2.809,-3.205 0,-2.351 -1.451,-3.189 -2.809,-3.189 -1.362,0 -2.818,0.838 -2.818,3.189 0,2.363 1.456,3.205 2.818,3.205 m 7.184,-3.823 c 0,-0.922 -0.355,-1.372 -1.083,-1.372 -0.736,0 -1.108,0.462 -1.108,1.372 V 0 h -1.34 v -3.681 c -0.004,-0.899 0.22,-1.583 0.667,-2.032 0.415,-0.416 1.014,-0.628 1.781,-0.628 1.106,0 2.422,0.462 2.422,2.66 V 0 h -1.339 z m 3.804,0.592 h 0.801 c 0.776,0 1.17,0.34 1.17,1.012 0,0.681 -0.431,1.056 -1.214,1.056 H 75.387 Z M 76.241,0 c 1.59,0 2.466,-0.77 2.466,-2.166 0,-1.318 -0.863,-2.105 -2.308,-2.105 h -1.012 v -2.017 h -1.34 V 0 Z"
             style="fill:#103053;fill-opacity:1;fill-rule:nonzero;stroke:none"
             id="path254" /></g><g
           id="g256"
           transform="translate(224.3602,8.7406)"><path
             d="m 0,0 c 0.259,0 0.225,0.146 0.225,0.421 v 1.333 c 0,0.275 -0.025,0.362 0.131,0.362 0.548,0 0.699,0.051 0.699,0.538 v 4.954 c 0,1.349 -0.953,1.125 -1.221,1.619 -0.382,0.667 0.713,0.667 0.314,2.11 -0.1,0.328 -0.357,0.529 -0.851,0.529 -0.494,0 -0.752,-0.201 -0.852,-0.529 -0.397,-1.443 0.699,-1.443 0.317,-2.11 -0.27,-0.494 -1.221,-0.27 -1.221,-1.619 V 2.654 c 0,-0.487 0.147,-0.538 0.698,-0.538 0.154,0 0.13,-0.087 0.13,-0.362 V 0.421 C -1.631,0.146 -1.664,0 -1.404,0 H 0"
             style="fill:#0072bc;fill-opacity:1;fill-rule:nonzero;stroke:none"
             id="path258" /></g><g
           id="g260"
           transform="translate(220.0242,19.4838)"><path
             d="m 0,0 c -0.487,-0.518 -1.257,-1.729 -0.754,-2.733 1.022,-0.393 0.942,3.237 2.217,3.174 0.629,-0.582 -0.189,-2.295 -0.442,-3.047 -0.314,-0.93 -0.564,-2.877 -1.162,-3.82 -0.502,-0.787 -0.126,-3.254 -0.284,-4.102 -0.422,-0.425 -1.571,-0.125 -2.057,-0.046 0,0.973 -0.127,1.743 -0.283,3.3 -0.015,0.313 -0.346,5.122 -0.079,5.704 0.55,1.211 3.551,3.519 3.962,3.96 0.36,0.392 1.632,1.697 2.12,1.697 C 3.582,3.851 3.379,3.301 3.301,3.081 2.813,1.87 0.707,0.677 0,0"
             style="fill:#0072bc;fill-opacity:1;fill-rule:nonzero;stroke:none"
             id="path262" /></g><g
           id="g264"
           transform="translate(227.3475,19.4838)"><path
             d="m 0,0 c 0.47,-0.518 1.241,-1.729 0.753,-2.733 -1.036,-0.393 -0.957,3.237 -2.232,3.174 -0.611,-0.582 0.206,-2.295 0.457,-3.047 0.315,-0.93 0.567,-2.877 1.162,-3.82 0.489,-0.787 0.125,-3.254 0.267,-4.102 0.441,-0.425 1.572,-0.125 2.074,-0.046 0,0.973 0.111,1.743 0.268,3.3 0.031,0.313 0.361,5.122 0.095,5.704 -0.55,1.211 -3.551,3.519 -3.96,3.96 C -1.492,2.782 -2.751,4.087 -3.239,4.087 -3.599,3.851 -3.379,3.301 -3.301,3.081 -2.813,1.87 -0.707,0.677 0,0"
             style="fill:#0072bc;fill-opacity:1;fill-rule:nonzero;stroke:none"
             id="path266" /></g><g
           id="g268"
           transform="translate(215.659,21.1137)"><path
             d="m 0,0 c -0.267,-0.252 -0.867,-0.425 -1.275,-0.974 -0.158,0.297 0.251,1.021 0.74,1.447 0.361,0.3 1.07,0.788 1.273,0.834 C 0.896,0.945 0.33,0.394 0,0"
             style="fill:#0072bc;fill-opacity:1;fill-rule:nonzero;stroke:none"
             id="path270" /></g><g
           id="g272"
           transform="translate(214.8241,19.1449)"><path
             d="m 0,0 c -0.455,-0.423 -0.943,-0.598 -1.574,-1.37 -0.268,0.931 -0.204,1.749 -0.079,2.301 0.221,0.723 0.583,1.527 1.198,1.778 C -0.582,2.3 -0.788,1.733 -0.834,0.961 -1.101,-0.095 -1.26,-0.125 -1.196,-0.268 c 0.061,0 0.408,0.552 0.834,0.977 C 0.143,1.212 0.771,1.323 1.181,1.622 1.119,1.418 0.757,0.772 0,0"
             style="fill:#0072bc;fill-opacity:1;fill-rule:nonzero;stroke:none"
             id="path274" /></g><g
           id="g276"
           transform="translate(212.6053,14.7836)"><path
             d="m 0,0 c -0.614,1.103 -0.678,1.906 -0.726,2.836 0.033,0.644 0.348,2.14 0.82,2.36 C -0.048,3.843 0.315,3.717 0.172,2.599 0.172,2.536 0.014,1.37 0.014,1.308 0.203,1.339 0.031,2.38 2.187,3.874 1.717,3.056 1.935,2.804 1.084,1.717 0.094,0.74 -0.048,-0.219 0,0"
             style="fill:#0072bc;fill-opacity:1;fill-rule:nonzero;stroke:none"
             id="path278" /></g><g
           id="g280"
           transform="translate(213.4715,13.7436)"><path
             d="m 0,0 c -0.458,-0.66 -0.379,-0.991 -0.489,-1.305 -1.088,0.629 -2.315,3.132 -1.86,4.376 0.286,-0.944 0.678,-1.148 0.962,-1.936 0.489,-1.181 0.411,-1.542 0.724,-1.811 -0.064,0.614 0.142,1.339 0.349,1.874 0.298,0.457 0.532,1.055 0.754,1.26 C 0.676,1.591 0.502,0.883 0,0"
             style="fill:#0072bc;fill-opacity:1;fill-rule:nonzero;stroke:none"
             id="path282" /></g><g
           id="g284"
           transform="translate(214.4471,11.6029)"><path
             d="m 0,0 c 0,-0.96 -0.174,-1.386 -0.253,-2.094 -1.874,0.614 -2.851,2.755 -2.851,3.81 0.569,-1.29 1.403,-1.275 2.491,-3.102 0.093,0.694 -0.191,0.174 -0.221,1.481 0.03,1.37 0.314,1.418 0.36,2.266 C -0.125,1.984 0,0.472 0,0"
             style="fill:#0072bc;fill-opacity:1;fill-rule:nonzero;stroke:none"
             id="path286" /></g><g
           id="g288"
           transform="translate(216.0047,8.8803)"><path
             d="m 0,0 c 0.143,-0.709 0.204,-1.544 0.315,-2.158 -1.069,0.393 -1.338,0.095 -2.613,0.898 -0.583,0.316 -1.622,1.637 -1.557,2.583 1.258,-1.402 1.478,-1.246 2.093,-1.763 0.567,-0.458 1.022,-1.135 1.434,-1.041 0.029,0.377 -0.93,1.197 -0.805,3.558 C -0.881,1.811 -0.188,0.74 0,0"
             style="fill:#0072bc;fill-opacity:1;fill-rule:nonzero;stroke:none"
             id="path290" /></g><g
           id="g292"
           transform="translate(218.1307,7.1156)"><path
             d="m 0,0 c 0.33,-0.472 0.253,-0.677 1.104,-1.652 -0.208,-0.094 -1.417,-0.41 -2.223,-0.442 -0.533,0 -2.423,0.504 -3.052,1.795 1.085,-0.582 1.102,-0.44 2.549,-0.756 1.04,-0.236 1.78,-0.566 2.063,-0.535 -0.062,0.142 -0.864,0.473 -1.416,1.165 -0.552,0.74 -0.426,1.574 -0.916,2.19 C -1.559,1.859 -0.268,0.347 0,0"
             style="fill:#0072bc;fill-opacity:1;fill-rule:nonzero;stroke:none"
             id="path294" /></g><g
           id="g296"
           transform="translate(231.6239,21.1137)"><path
             d="M 0,0 C 0.252,-0.252 0.866,-0.425 1.26,-0.974 1.433,-0.677 1.01,0.047 0.52,0.473 0.176,0.773 -0.534,1.261 -0.757,1.307 -0.913,0.945 -0.347,0.394 0,0"
             style="fill:#0072bc;fill-opacity:1;fill-rule:nonzero;stroke:none"
             id="path298" /></g><g
           id="g300"
           transform="translate(232.4588,19.1449)"><path
             d="M 0,0 C 0.441,-0.423 0.93,-0.598 1.558,-1.37 1.826,-0.439 1.763,0.379 1.64,0.931 1.435,1.654 1.056,2.458 0.441,2.709 0.584,2.3 0.772,1.733 0.819,0.961 1.087,-0.095 1.244,-0.125 1.182,-0.268 1.119,-0.268 0.772,0.284 0.346,0.709 -0.141,1.212 -0.772,1.323 -1.196,1.622 -1.133,1.418 -0.755,0.772 0,0"
             style="fill:#0072bc;fill-opacity:1;fill-rule:nonzero;stroke:none"
             id="path302" /></g><g
           id="g304"
           transform="translate(234.6639,14.7836)"><path
             d="M 0,0 C 0.63,1.103 0.675,1.906 0.725,2.836 0.691,3.48 0.377,4.976 -0.079,5.196 0.047,3.843 -0.315,3.717 -0.158,2.599 -0.158,2.536 -0.016,1.37 -0.016,1.308 -0.189,1.339 -0.033,2.38 -2.174,3.874 -1.716,3.056 -1.937,2.804 -1.087,1.717 -0.079,0.74 0.047,-0.219 0,0"
             style="fill:#0072bc;fill-opacity:1;fill-rule:nonzero;stroke:none"
             id="path306" /></g><g
           id="g308"
           transform="translate(233.8123,13.7436)"><path
             d="M 0,0 C 0.442,-0.66 0.363,-0.991 0.473,-1.305 1.561,-0.676 2.803,1.827 2.331,3.071 2.063,2.127 1.654,1.923 1.387,1.135 0.883,-0.046 0.96,-0.407 0.662,-0.676 0.725,-0.062 0.504,0.663 0.3,1.198 0.017,1.655 -0.234,2.253 -0.457,2.458 -0.677,1.591 -0.521,0.883 0,0"
             style="fill:#0072bc;fill-opacity:1;fill-rule:nonzero;stroke:none"
             id="path310" /></g><g
           id="g312"
           transform="translate(232.8211,11.6029)"><path
             d="m 0,0 c 0,-0.96 0.187,-1.386 0.268,-2.094 1.859,0.614 2.85,2.755 2.85,3.81 C 2.534,0.426 1.716,0.441 0.614,-1.386 0.52,-0.692 0.802,-1.212 0.834,0.095 0.802,1.465 0.52,1.513 0.471,2.361 0.127,1.984 0,0.472 0,0"
             style="fill:#0072bc;fill-opacity:1;fill-rule:nonzero;stroke:none"
             id="path314" /></g><g
           id="g316"
           transform="translate(231.2625,8.8803)"><path
             d="m 0,0 c -0.143,-0.709 -0.189,-1.544 -0.299,-2.158 1.055,0.393 1.322,0.095 2.597,0.898 0.583,0.316 1.639,1.637 1.575,2.583 C 2.613,-0.079 2.378,0.077 1.78,-0.44 1.212,-0.898 0.74,-1.575 0.33,-1.481 0.299,-1.104 1.259,-0.284 1.149,2.077 0.881,1.811 0.188,0.74 0,0"
             style="fill:#0072bc;fill-opacity:1;fill-rule:nonzero;stroke:none"
             id="path318" /></g><g
           id="g320"
           transform="translate(229.1366,7.1156)"><path
             d="m 0,0 c -0.316,-0.472 -0.238,-0.677 -1.103,-1.652 0.22,-0.094 1.417,-0.41 2.237,-0.442 0.519,0 2.409,0.504 3.037,1.795 -1.084,-0.582 -1.102,-0.44 -2.549,-0.756 -1.04,-0.236 -1.764,-0.566 -2.061,-0.535 0.061,0.142 0.878,0.473 1.417,1.165 0.549,0.74 0.423,1.574 0.926,2.19 C 1.56,1.859 0.269,0.347 0,0"
             style="fill:#0072bc;fill-opacity:1;fill-rule:nonzero;stroke:none"
             id="path322" /></g><g
           id="g324"
           transform="translate(220.9491,2.6762)"><path
             d="m 0,0 -0.314,0.157 c 0,0 2.001,2.441 5.431,2.252 C 8.55,2.22 8.314,1.416 10.155,1.543 10.36,1.559 9.999,1.29 9.999,1.29 9.999,1.29 8.203,0.6 5.983,1.354 3.778,2.109 2.346,2.567 0,0"
             style="fill:#0072bc;fill-opacity:1;fill-rule:nonzero;stroke:none"
             id="path326" /></g><g
           id="g328"
           transform="translate(226.3797,2.6762)"><path
             d="m 0,0 0.317,0.157 c 0,0 -1.984,2.441 -5.416,2.252 -3.448,-0.189 -3.213,-0.993 -5.054,-0.866 -0.205,0.016 0.157,-0.253 0.157,-0.253 0,0 1.794,-0.69 4.015,0.064 C -3.763,2.109 -2.328,2.567 0,0"
             style="fill:#0072bc;fill-opacity:1;fill-rule:nonzero;stroke:none"
             id="path330" /></g><g
           id="g332"
           transform="translate(250.7137,13.2943)"><path
             d="m 0,0 c 0,-3.29 -1.776,-4.868 -5.397,-4.868 -3.624,0 -5.418,1.578 -5.418,4.868 V 7.275 H -7.16 V 0.813 c 0,-1.211 0,-2.725 1.778,-2.725 1.728,0 1.728,1.514 1.728,2.725 V 7.275 H 0 V 0"
             style="fill:#0072bc;fill-opacity:1;fill-rule:nonzero;stroke:none"
             id="path334" /></g><g
           id="g336"
           transform="translate(252.9071,20.5697)"><path
             d="M 0,0 H 3.737 L 7.193,-6.345 H 7.227 V 0 h 3.455 V -11.86 H 7.127 L 3.489,-5.382 H 3.455 V -11.86 H 0 Z"
             style="fill:#0072bc;fill-opacity:1;fill-rule:nonzero;stroke:none"
             id="path338" /></g><g
           id="g340"
           transform="translate(265.8319,20.5697)"><path
             d="M 0,0 H 3.655 V -4.119 H 7.078 V 0 h 3.654 V -11.86 H 7.078 v 4.701 H 3.655 V -11.86 H 0 Z"
             style="fill:#0072bc;fill-opacity:1;fill-rule:nonzero;stroke:none"
             id="path342" /></g><g
           id="g344"
           transform="translate(285.9178,16.1508)"><path
             d="m 0,0 c -0.066,0.433 -0.399,1.744 -1.912,1.744 -1.711,0 -2.258,-1.66 -2.258,-3.255 0,-1.594 0.547,-3.257 2.258,-3.257 1.23,0 1.713,0.865 1.929,1.977 h 3.587 c 0,-2.392 -1.943,-4.934 -5.416,-4.934 -3.836,0 -6.013,2.708 -6.013,6.214 0,3.739 2.359,6.212 6.013,6.212 C 1.444,4.686 3.239,2.974 3.554,0 H 0"
             style="fill:#0072bc;fill-opacity:1;fill-rule:nonzero;stroke:none"
             id="path346" /></g><g
           id="g348"
           transform="translate(291.0497,8.7094)"><path
             d="m 0,0 h 3.655 v 4.136 h 1.946 c 1.444,0 1.544,-1.18 1.643,-2.31 C 7.293,1.212 7.359,0.597 7.544,0 h 3.655 c -0.334,0.548 -0.349,1.959 -0.4,2.541 -0.133,1.479 -0.746,2.575 -1.744,2.957 1.213,0.449 1.778,1.744 1.778,2.974 0,2.243 -1.796,3.388 -3.871,3.388 H 0 V 0 m 3.655,9.037 h 1.712 c 1.396,0 1.811,-0.432 1.811,-1.181 0,-1.061 -0.931,-1.178 -1.612,-1.178 H 3.655 Z"
             style="fill:#0072bc;fill-opacity:1;fill-rule:nonzero;stroke:none"
             id="path350" /></g><g
           id="g352"
           transform="translate(241.0877,5.9818)"><path
             d="M 0,0 H -1.191 V 0.735 H 2.065 V 0 H 0.874 V -3.239 H 0 Z"
             style="fill:#0072bc;fill-opacity:1;fill-rule:nonzero;stroke:none"
             id="path354" /></g><g
           id="g356"
           transform="translate(243.4256,6.7172)"><path
             d="m 0,0 h 0.791 v -1.497 h 0.016 c 0.201,0.323 0.546,0.478 0.841,0.478 0.84,0 1.052,-0.473 1.052,-1.185 V -3.975 H 1.909 v 1.626 c 0,0.474 -0.138,0.707 -0.506,0.707 -0.428,0 -0.612,-0.239 -0.612,-0.824 V -3.975 H 0 V 0"
             style="fill:#0072bc;fill-opacity:1;fill-rule:nonzero;stroke:none"
             id="path358" /></g><g
           id="g360"
           transform="translate(248.5408,4.4906)"><path
             d="M 0,0 C -0.072,0.401 -0.245,0.612 -0.629,0.612 -1.13,0.612 -1.274,0.223 -1.285,0 H 0 m -1.285,-0.5 c 0.021,-0.502 0.266,-0.729 0.706,-0.729 0.318,0 0.573,0.194 0.624,0.373 H 0.74 c -0.222,-0.68 -0.695,-0.97 -1.346,-0.97 -0.907,0 -1.47,0.624 -1.47,1.514 0,0.864 0.596,1.52 1.47,1.52 0.979,0 1.453,-0.823 1.397,-1.708 z"
             style="fill:#0072bc;fill-opacity:1;fill-rule:nonzero;stroke:none"
             id="path362" /></g><g
           id="g364"
           transform="translate(254.4647,4.2455)"><path
             d="m 0,0 c 0,-1.074 -0.635,-1.597 -1.698,-1.597 -1.069,0 -1.693,0.518 -1.693,1.597 v 2.472 h 0.874 V 0 c 0,-0.434 0.113,-0.862 0.819,-0.862 0.624,0 0.824,0.272 0.824,0.862 V 2.472 H 0 V 0"
             style="fill:#0072bc;fill-opacity:1;fill-rule:nonzero;stroke:none"
             id="path366" /></g><g
           id="g368"
           transform="translate(255.0487,6.7172)"><path
             d="M 0,0 H 0.869 L 2.527,-2.666 H 2.539 V 0 H 3.357 V -3.975 H 2.482 L 0.83,-1.313 H 0.818 V -3.975 H 0 Z"
             style="fill:#0072bc;fill-opacity:1;fill-rule:nonzero;stroke:none"
             id="path370" /></g><g
           id="g372"
           transform="translate(260.3094,2.7426)"><path
             d="M 0,0 H 0.874 V 1.554 H 1.748 C 2.188,1.554 2.35,1.37 2.41,0.953 2.455,0.635 2.444,0.251 2.55,0 H 3.424 C 3.268,0.224 3.273,0.691 3.257,0.941 3.229,1.342 3.106,1.759 2.678,1.87 v 0.012 c 0.439,0.178 0.629,0.529 0.629,0.996 0,0.601 -0.451,1.097 -1.163,1.097 H 0 V 0 m 0.874,3.296 h 0.957 c 0.39,0 0.602,-0.168 0.602,-0.552 0,-0.4 -0.212,-0.567 -0.602,-0.567 H 0.874 Z"
             style="fill:#0072bc;fill-opacity:1;fill-rule:nonzero;stroke:none"
             id="path374" /></g><g
           id="g376"
           transform="translate(266.8719,3.9906)"><path
             d="m 0,0 c 0.057,0.885 -0.417,1.708 -1.396,1.708 -0.875,0 -1.47,-0.656 -1.47,-1.52 0,-0.89 0.562,-1.514 1.47,-1.514 0.651,0 1.124,0.29 1.346,0.97 h -0.695 c -0.051,-0.179 -0.307,-0.373 -0.623,-0.373 -0.441,0 -0.686,0.227 -0.708,0.729 L 0,0 m -2.076,0.5 c 0.012,0.223 0.156,0.612 0.657,0.612 0.384,0 0.557,-0.211 0.63,-0.612 z"
             style="fill:#0072bc;fill-opacity:1;fill-rule:nonzero;stroke:none"
             id="path378" /></g><g
           id="g380"
           transform="translate(267.3934,5.0922)"><path
             d="M 0,0 H -0.474 V 0.528 H 0 v 0.223 c 0,0.507 0.316,0.874 0.962,0.874 0.14,0 0.284,-0.017 0.418,-0.022 V 1.013 C 1.286,1.023 1.19,1.03 1.09,1.03 0.879,1.03 0.79,0.94 0.79,0.701 V 0.528 H 1.335 V 0 H 0.79 V -2.35 H 0 V 0"
             style="fill:#0072bc;fill-opacity:1;fill-rule:nonzero;stroke:none"
             id="path382" /></g><g
           id="g384"
           transform="translate(271.6737,2.7426)"><path
             d="m 0,0 h -0.752 v 0.401 h -0.017 c -0.2,-0.322 -0.544,-0.479 -0.878,-0.479 -0.841,0 -1.053,0.474 -1.053,1.186 v 1.77 h 0.791 V 1.253 c 0,-0.474 0.138,-0.707 0.507,-0.707 0.427,0 0.611,0.239 0.611,0.824 V 2.878 H 0 V 0"
             style="fill:#0072bc;fill-opacity:1;fill-rule:nonzero;stroke:none"
             id="path386" /></g><g
           id="g388"
           transform="translate(274.9188,5.6205)"><path
             d="m 0,0 h -0.752 v -0.384 h -0.011 c -0.189,0.334 -0.478,0.462 -0.857,0.462 -0.807,0 -1.235,-0.679 -1.235,-1.425 0,-0.79 0.367,-1.447 1.23,-1.447 0.345,0 0.69,0.146 0.862,0.445 h 0.011 v -0.379 c 0.006,-0.412 -0.194,-0.711 -0.634,-0.711 -0.278,0 -0.517,0.1 -0.591,0.394 h -0.784 c 0.038,-0.656 0.7,-0.924 1.269,-0.924 1.325,0 1.492,0.802 1.492,1.276 L 0,0 m -1.426,-2.198 c -0.483,0 -0.639,0.45 -0.639,0.862 0,0.429 0.194,0.818 0.639,0.818 0.513,0 0.674,-0.417 0.674,-0.884 0,-0.412 -0.223,-0.796 -0.674,-0.796"
             style="fill:#0072bc;fill-opacity:1;fill-rule:nonzero;stroke:none"
             id="path390" /></g><g
           id="g392"
           transform="translate(278.1805,3.9906)"><path
             d="m 0,0 c 0.056,0.885 -0.418,1.708 -1.397,1.708 -0.874,0 -1.47,-0.656 -1.47,-1.52 0,-0.89 0.562,-1.514 1.47,-1.514 0.651,0 1.125,0.29 1.347,0.97 h -0.696 c -0.051,-0.179 -0.307,-0.373 -0.623,-0.373 -0.441,0 -0.686,0.227 -0.707,0.729 L 0,0 m -2.076,0.5 c 0.011,0.223 0.155,0.612 0.656,0.612 0.385,0 0.557,-0.211 0.629,-0.612 z"
             style="fill:#0072bc;fill-opacity:1;fill-rule:nonzero;stroke:none"
             id="path394" /></g><g
           id="g396"
           transform="translate(281.2752,3.9906)"><path
             d="m 0,0 c 0.056,0.885 -0.418,1.708 -1.397,1.708 -0.874,0 -1.469,-0.656 -1.469,-1.52 0,-0.89 0.561,-1.514 1.469,-1.514 0.651,0 1.124,0.29 1.347,0.97 h -0.696 c -0.05,-0.179 -0.307,-0.373 -0.624,-0.373 -0.44,0 -0.684,0.227 -0.706,0.729 L 0,0 m -2.076,0.5 c 0.012,0.223 0.155,0.612 0.657,0.612 0.384,0 0.557,-0.211 0.628,-0.612 z"
             style="fill:#0072bc;fill-opacity:1;fill-rule:nonzero;stroke:none"
             id="path398" /></g><g
           id="g400"
           transform="translate(282.95,2.7426)"><path
             d="M 0,0 H 0.885 L 1.197,0.886 H 2.683 L 2.983,0 H 3.892 L 2.405,3.975 H 1.509 Z M 1.943,2.995 H 1.954 L 2.455,1.537 H 1.426 Z"
             style="fill:#0072bc;fill-opacity:1;fill-rule:nonzero;stroke:none"
             id="path402" /></g><g
           id="g404"
           transform="translate(289.7469,5.6205)"><path
             d="m 0,0 h -0.751 v -0.384 h -0.012 c -0.189,0.334 -0.478,0.462 -0.856,0.462 -0.808,0 -1.236,-0.679 -1.236,-1.425 0,-0.79 0.367,-1.447 1.229,-1.447 0.346,0 0.691,0.146 0.863,0.445 h 0.012 v -0.379 c 0.005,-0.412 -0.195,-0.711 -0.635,-0.711 -0.278,0 -0.517,0.1 -0.59,0.394 h -0.786 c 0.04,-0.656 0.703,-0.924 1.271,-0.924 1.324,0 1.491,0.802 1.491,1.276 V 0 m -1.425,-2.198 c -0.484,0 -0.64,0.45 -0.64,0.862 0,0.429 0.195,0.818 0.64,0.818 0.512,0 0.674,-0.417 0.674,-0.884 0,-0.412 -0.224,-0.796 -0.674,-0.796"
             style="fill:#0072bc;fill-opacity:1;fill-rule:nonzero;stroke:none"
             id="path406" /></g><g
           id="g408"
           transform="translate(293.0086,3.9906)"><path
             d="m 0,0 c 0.056,0.885 -0.417,1.708 -1.396,1.708 -0.875,0 -1.47,-0.656 -1.47,-1.52 0,-0.89 0.561,-1.514 1.47,-1.514 0.651,0 1.124,0.29 1.345,0.97 h -0.694 c -0.051,-0.179 -0.307,-0.373 -0.624,-0.373 -0.44,0 -0.685,0.227 -0.707,0.729 L 0,0 m -2.076,0.5 c 0.011,0.223 0.156,0.612 0.657,0.612 0.384,0 0.557,-0.211 0.629,-0.612 z"
             style="fill:#0072bc;fill-opacity:1;fill-rule:nonzero;stroke:none"
             id="path410" /></g><g
           id="g412"
           transform="translate(293.3534,5.6205)"><path
             d="M 0,0 H 0.752 V -0.4 H 0.77 c 0.2,0.323 0.544,0.478 0.878,0.478 0.84,0 1.052,-0.474 1.052,-1.185 V -2.878 H 1.909 v 1.626 c 0,0.474 -0.138,0.707 -0.506,0.707 -0.428,0 -0.612,-0.239 -0.612,-0.824 V -2.878 H 0 V 0"
             style="fill:#0072bc;fill-opacity:1;fill-rule:nonzero;stroke:none"
             id="path414" /></g><g
           id="g416"
           transform="translate(298.4911,4.6078)"><path
             d="m 0,0 c -0.05,0.322 -0.256,0.495 -0.584,0.495 -0.507,0 -0.674,-0.512 -0.674,-0.934 0,-0.413 0.162,-0.908 0.657,-0.908 0.368,0 0.579,0.234 0.629,0.584 h 0.763 c -0.101,-0.762 -0.63,-1.18 -1.386,-1.18 -0.869,0 -1.453,0.613 -1.453,1.475 0,0.896 0.534,1.559 1.47,1.559 C 0.101,1.091 0.725,0.734 0.774,0 H 0"
             style="fill:#0072bc;fill-opacity:1;fill-rule:nonzero;stroke:none"
             id="path418" /></g><g
           id="g420"
           transform="translate(301.0467,2.3813)"><path
             d="m 0,0 c -0.173,-0.462 -0.446,-0.651 -0.991,-0.651 -0.161,0 -0.322,0.01 -0.485,0.027 V 0.027 C -1.325,0.017 -1.17,-0.006 -1.014,0 c 0.273,0.027 0.363,0.312 0.273,0.54 l -1.013,2.7 h 0.847 l 0.651,-1.97 h 0.011 L 0.384,3.24 H 1.202 L 0,0"
             style="fill:#0072bc;fill-opacity:1;fill-rule:nonzero;stroke:none"
             id="path422" /></g></g></g></g></svg>
